<svg width="165" height="54" viewBox="0 0 165 54" fill="none" xmlns="http://www.w3.org/2000/svg">
<g clip-path="url(#clip0_14628_4463)">
<path d="M76.4047 20.0688C78.6899 20.0688 80.1794 18.8303 80.1794 16.831C80.1794 14.8316 78.8799 13.5312 76.5285 13.5312H72.5327V20.0688H76.4047ZM75.9936 10.3198C78.2125 10.3198 79.5473 9.05032 79.5473 7.17925C79.5473 5.30818 78.2125 4.03426 75.9008 4.03426H72.5372V10.3198H75.9981H75.9936ZM76.5019 0.796387C80.8159 0.796387 83.3574 3.33538 83.3574 6.86077C83.3574 9.24494 81.9607 11.0231 80.0247 11.722C82.4027 12.359 84.0558 14.4202 84.0558 17.0875C84.0558 20.7102 81.2623 23.3111 77.0765 23.3111H68.7625V0.796387H76.5064H76.5019Z" fill="#2B6E37"/>
<path d="M87.6979 7.84699H91.3444V23.3109H87.6979V7.84699ZM89.5057 0C90.8361 0 91.919 1.07929 91.919 2.41514C91.919 3.75098 90.8405 4.79489 89.5057 4.79489C88.1708 4.79489 87.1277 3.74656 87.1277 2.41514C87.1277 1.08372 88.2062 0 89.5057 0Z" fill="#2B6E37"/>
<path d="M107.243 15.5612C107.243 12.3543 105.215 10.6999 102.929 10.6999C100.644 10.6999 98.6155 12.3498 98.6155 15.5612C98.6155 18.7725 100.68 20.4843 102.929 20.4843C105.179 20.4843 107.243 18.7991 107.243 15.5612ZM110.956 15.5612C110.956 20.3207 107.562 23.7841 102.929 23.7841C98.2972 23.7841 94.9336 20.3207 94.9336 15.5612C94.9336 10.8017 98.3282 7.36475 102.929 7.36475C107.531 7.36475 110.956 10.8282 110.956 15.5612Z" fill="#2B6E37"/>
<path d="M123.226 12.3853H114.28V15.6541H123.226V12.3853Z" fill="#2B6E37"/>
<path d="M89.7311 52.943V36.3688L82.721 52.943H79.4192L72.4709 36.4307V52.943H68.7581V30.4282H73.8323L81.1297 47.6084L88.3388 30.4282H93.5103V52.943H89.7311Z" fill="#2B6E37"/>
<path d="M107.177 46.5288V45.8299L103.15 46.4315C102.006 46.6217 101.086 47.2587 101.086 48.5282C101.086 49.5765 101.882 50.5275 103.34 50.5275C105.4 50.5275 107.177 49.5455 107.177 46.5288ZM102.067 44.0827L106.037 43.4812C106.921 43.3529 107.177 42.9061 107.177 42.3665C107.177 41.0616 106.293 40.0177 104.26 40.0177C102.227 40.0177 101.241 41.2562 101.082 42.8132L97.7181 42.0524C98.001 39.3852 100.414 37.001 104.224 37.001C108.985 37.001 110.793 39.6992 110.793 42.7823V50.4656C110.793 51.8634 110.952 52.7834 110.983 52.9427H107.557C107.526 52.8498 107.398 52.2128 107.398 50.9743C106.664 52.1509 105.144 53.4204 102.638 53.4204C99.4022 53.4204 97.4043 51.1999 97.4043 48.7538C97.4043 45.9936 99.4331 44.4676 102.067 44.0871" fill="#2B6E37"/>
<path d="M119.964 37.4791H123.169V40.7479H119.964V47.9225C119.964 49.2893 120.565 49.86 121.931 49.86C122.44 49.86 123.041 49.7671 123.2 49.7361V52.7838C122.979 52.8811 122.28 53.1332 120.95 53.1332C118.095 53.1332 116.318 51.417 116.318 48.5285V40.7479H113.458V37.4791H114.254C115.902 37.4791 116.632 36.4307 116.632 35.0639V32.7461H119.964V37.4791Z" fill="#2B6E37"/>
<path d="M129.26 45.193C129.26 48.307 131.257 50.0542 133.573 50.0542C135.89 50.0542 137.096 48.369 137.445 47.1924L140.685 48.369C139.956 50.7841 137.64 53.416 133.578 53.416C129.043 53.416 125.582 49.8906 125.582 45.193C125.582 40.4954 129.043 36.9966 133.481 36.9966C137.64 36.9966 139.925 39.6019 140.557 42.079L137.26 43.2866C136.911 41.9197 135.863 40.3981 133.512 40.3981C131.16 40.3981 129.26 42.079 129.26 45.193Z" fill="#2B6E37"/>
<path d="M147.66 52.9427H143.978V29.9502H147.66V38.9694C148.708 37.6026 150.454 37.0319 152.071 37.0319C155.877 37.0319 157.72 39.7656 157.72 43.1627V52.9427H154.038V43.7952C154.038 41.8888 153.181 40.3671 150.865 40.3671C148.836 40.3671 147.722 41.8888 147.66 43.8571V52.9382V52.9427Z" fill="#2B6E37"/>
<path d="M162.317 39.6771C162.653 39.6771 162.839 39.5135 162.839 39.2392C162.839 38.9473 162.653 38.7836 162.317 38.7836H161.933V39.6727H162.317V39.6771ZM161.933 41.2784H161.367V38.2926H162.401C162.98 38.2926 163.413 38.704 163.413 39.2304C163.413 39.6462 163.144 39.9868 162.759 40.1151L163.427 41.2828H162.777L162.154 40.1681H161.928V41.2828L161.933 41.2784ZM162.277 42.0171C163.466 42.0171 164.399 41.0572 164.399 39.8098C164.399 38.5625 163.462 37.607 162.277 37.607C161.093 37.607 160.151 38.558 160.151 39.8098C160.151 41.0616 161.088 42.0171 162.277 42.0171ZM162.277 37.0674C163.785 37.0674 165.004 38.3015 165.004 39.8098C165.004 41.3182 163.785 42.5612 162.277 42.5612C160.77 42.5612 159.572 41.3182 159.572 39.8098C159.572 38.3015 160.779 37.0674 162.277 37.0674Z" fill="#2B6E37"/>
<path d="M26.5821 52.7307C15.1519 52.7307 5.48085 45.1049 2.34704 34.6747C9.2202 31.3085 19.9565 28.2564 32.8983 32.1843C37.1372 33.4715 40.5317 34.5597 43.5727 35.5416C45.7607 36.2449 47.7629 36.8863 49.7785 37.5056C45.8712 46.4584 36.9471 52.7351 26.5821 52.7351M4.87088 14.4424C11.6998 12.8278 18.9708 13.0534 26.4849 15.1457C34.4409 17.3529 40.6157 18.0208 45.1639 18.0208C47.0513 18.0208 48.6204 17.897 49.9641 17.7289C51.1973 20.7102 51.8868 23.9702 51.8868 27.3939C51.8868 30.5344 51.2857 33.529 50.2381 36.3113C48.2005 35.6832 46.1717 35.0374 43.9573 34.3252C40.9074 33.3432 37.5129 32.2507 33.2608 30.9635C20.0714 26.9648 9.1097 29.9904 2.01996 33.414C1.54701 31.481 1.26855 29.4728 1.26855 27.3939C1.26855 22.6565 2.59898 18.2376 4.86646 14.4424M26.5821 2.06588C36.6421 2.06588 45.3275 7.98872 49.4028 16.5169C44.9076 17.0167 37.5571 16.8973 26.8252 13.9204C19.5542 11.8989 12.4999 11.5893 5.82119 12.9473C10.3959 6.38305 17.9896 2.06588 26.5821 2.06588ZM26.5821 0.796387C11.9253 0.796387 0 12.7305 0 27.3983C0 42.066 11.9253 54.0002 26.5821 54.0002C41.2389 54.0002 53.1598 42.066 53.1598 27.3983C53.1598 12.7305 41.2345 0.796387 26.5821 0.796387Z" fill="#2D6E37"/>
<path d="M20.6945 30.335C13.1937 30.335 6.91282 32.4361 2.34692 34.6743C5.47631 45.1045 15.1518 52.7303 26.582 52.7303C36.9514 52.7303 45.871 46.4536 49.7784 37.5008C47.7672 36.8815 45.7605 36.2401 43.5726 35.5368C40.5272 34.5593 37.137 33.4667 32.8982 32.1795C28.5622 30.8658 24.4736 30.3306 20.6989 30.3306" fill="#638A55"/>
<path d="M20.6371 29.7646C12.7606 29.7646 6.21014 32.0427 1.5249 34.4091C4.55705 45.379 14.6038 53.4339 26.5291 53.4339C37.4289 53.4339 46.7551 46.706 50.5962 37.1737C45.5485 35.6388 40.6643 33.9535 33.0265 31.6401C28.6242 30.3043 24.4693 29.7646 20.6327 29.7646M26.5821 52.7306C15.1519 52.7306 5.48084 45.1048 2.34703 34.6745C6.91735 32.4363 13.1982 30.3353 20.699 30.3353C24.4782 30.3353 28.5623 30.8661 32.8983 32.1842C37.1371 33.4714 40.5317 34.5595 43.5727 35.5371C45.7606 36.2404 47.7629 36.8818 49.7785 37.501C45.8711 46.4539 36.9471 52.7306 26.5821 52.7306Z" fill="#296E37"/>
<path d="M14.0601 13.3848C10.9219 13.3848 7.85439 13.7386 4.87086 14.4419C2.60338 18.2372 1.27295 22.6605 1.27295 27.3979C1.27295 29.4768 1.55141 31.485 2.02436 33.418C6.71402 31.1533 13.0965 29.061 20.6946 29.061C24.5842 29.061 28.7965 29.6095 33.2652 30.9631C37.5128 32.2503 40.9163 33.3428 43.9617 34.3248C46.1761 35.037 48.2049 35.6872 50.2425 36.3109C51.2901 33.533 51.8912 30.5384 51.8912 27.3979C51.8912 23.9742 51.2017 20.7098 49.9641 17.7329C48.6204 17.901 47.0557 18.0248 45.1683 18.0248C40.6157 18.0248 34.4453 17.3569 26.4893 15.1497C22.2593 13.9731 18.1045 13.3892 14.0645 13.3892" fill="#BBC9A0"/>
<path d="M14.0336 12.7524C10.3827 12.7524 7.16045 13.2213 4.42003 13.8892C2.01995 17.826 0.636475 22.4484 0.636475 27.3981C0.636475 29.8044 0.963557 32.131 1.57352 34.3427C6.25876 31.9762 12.8093 29.7026 20.6858 29.7026C24.5224 29.7026 28.6728 30.2423 33.0795 31.5781C40.7174 33.896 45.6015 35.5768 50.6492 37.1117C51.8559 34.1127 52.5233 30.835 52.5233 27.4025C52.5233 23.7267 51.7586 20.2279 50.3796 17.0563C48.9475 17.2554 47.2104 17.3925 45.1463 17.3925C40.6157 17.3925 34.5161 16.7202 26.6528 14.535C22.025 13.2523 17.7995 12.7524 14.0336 12.7524ZM2.02437 33.4182C1.55142 31.4852 1.27296 29.477 1.27296 27.3981C1.27296 22.6607 2.60339 18.2418 4.87529 14.4466C7.85882 13.7388 10.9307 13.3894 14.0645 13.3894C18.1045 13.3894 22.2593 13.9777 26.4893 15.1499C34.4453 17.3571 40.6201 18.025 45.1684 18.025C47.0601 18.025 48.6248 17.9012 49.9685 17.7375C51.2017 20.7189 51.8956 23.9789 51.8956 27.4025C51.8956 30.5431 51.2945 33.5421 50.247 36.3199C48.2093 35.6918 46.1805 35.046 43.9661 34.3339C40.9163 33.3519 37.5217 32.2593 33.2696 30.9721C28.801 29.6186 24.5931 29.0701 20.699 29.0701C13.101 29.0701 6.71845 31.1623 2.02879 33.4271" fill="#296E37"/>
</g>
<defs>
<clipPath id="clip0_14628_4463">
<rect width="165" height="54" fill="white"/>
</clipPath>
</defs>
</svg>
