<svg width="18" height="18" viewBox="0 0 18 18" fill="none" xmlns="http://www.w3.org/2000/svg">
<path d="M4.85347 17.7119C4.10274 18.1887 3.14986 17.5217 3.34073 16.6531L4.32606 12.1693C4.40275 11.8203 4.28739 11.4569 4.02345 11.216L0.674561 8.15979C0.0325639 7.5739 0.39211 6.50438 1.25766 6.42529L5.5909 6.02934C5.96477 5.99518 6.28801 5.75448 6.4279 5.40609L8.07201 1.31126C8.40788 0.474725 9.59212 0.474725 9.92799 1.31126L11.5721 5.40609C11.712 5.75448 12.0352 5.99518 12.4091 6.02934L16.7423 6.42529C17.6079 6.50438 17.9674 7.5739 17.3254 8.15979L13.9765 11.216C13.7126 11.4569 13.5972 11.8203 13.6739 12.1693L14.6593 16.6531C14.8501 17.5217 13.8973 18.1887 13.1465 17.7119L9.53605 15.4193C9.20888 15.2116 8.79112 15.2116 8.46395 15.4193L4.85347 17.7119Z" fill="#3E6D3D"/>
</svg>
