<svg width="19" height="18" viewBox="0 0 19 18" fill="none" xmlns="http://www.w3.org/2000/svg">
<path d="M10.7964 7.59461C10.5189 6.90954 9.5 7.1081 9.5 7.84725V12.0595C9.5 12.3997 9.67291 12.7165 9.95899 12.9005L10.6179 13.3244C11.3674 13.8065 12.3256 13.1414 12.136 12.2706L11.9477 11.4059C11.8718 11.057 11.9876 10.6941 12.2517 10.4537L12.9261 9.83965C13.5684 9.2549 13.2111 8.18561 12.3463 8.10455L11.3572 8.01185C11.107 7.9884 10.8908 7.8275 10.7964 7.59461ZM5.35347 17.7119C4.60274 18.1887 3.64986 17.5217 3.84073 16.6531L4.82606 12.1693C4.90275 11.8203 4.78739 11.4569 4.52345 11.216L1.17456 8.15979C0.532564 7.5739 0.89211 6.50438 1.75766 6.42529L6.0909 6.02934C6.46477 5.99518 6.78801 5.75448 6.92789 5.40609L8.57201 1.31126C8.90788 0.474725 10.0921 0.474725 10.428 1.31126L12.0721 5.40609C12.212 5.75448 12.5352 5.99518 12.9091 6.02934L17.2423 6.42529C18.1079 6.50438 18.4674 7.5739 17.8254 8.15979L14.4765 11.216C14.2126 11.4569 14.0972 11.8203 14.1739 12.1693L15.1593 16.6531C15.3501 17.5217 14.3973 18.1887 13.6465 17.7119L10.036 15.4193C9.70888 15.2116 9.29112 15.2116 8.96395 15.4193L5.35347 17.7119Z" fill="#3E6D3D"/>
</svg>
