<svg width="25" height="25" viewBox="0 0 25 25" fill="none" xmlns="http://www.w3.org/2000/svg">
<path fill-rule="evenodd" clip-rule="evenodd" d="M12.4852 0C9.09473 0 8.66923 0.0148248 7.33758 0.0754245C6.00854 0.136284 5.10135 0.346693 4.30757 0.655413C3.48647 0.974277 2.78996 1.40082 2.09604 2.09498C1.40161 2.78889 0.975067 3.48539 0.65516 4.30622C0.345656 5.10026 0.134985 6.00769 0.0751652 7.33621C0.0156052 8.66784 0 9.0936 0 12.4841C0 15.8745 0.0150851 16.2987 0.0754253 17.6304C0.136546 18.9594 0.346956 19.8666 0.65542 20.6603C0.974547 21.4814 1.40109 22.1779 2.09526 22.8718C2.78892 23.5663 3.48543 23.9938 4.30601 24.3127C5.10031 24.6214 6.00776 24.8318 7.33654 24.8927C8.66819 24.9533 9.09343 24.9681 12.4837 24.9681C15.8744 24.9681 16.2986 24.9533 17.6303 24.8927C18.9593 24.8318 19.8675 24.6214 20.6619 24.3127C21.4827 23.9938 22.1782 23.5663 22.8718 22.8718C23.5662 22.1779 23.9928 21.4814 24.3127 20.6606C24.6196 19.8666 24.8303 18.9591 24.8927 17.6306C24.9525 16.299 24.9681 15.8745 24.9681 12.4841C24.9681 9.0936 24.9525 8.6681 24.8927 7.33647C24.8303 6.00743 24.6196 5.10026 24.3127 4.30648C23.9928 3.48539 23.5662 2.78889 22.8718 2.09498C22.1774 1.40056 21.483 0.974017 20.6611 0.655413C19.8652 0.346693 18.9575 0.136284 17.6285 0.0754245C16.2968 0.0148248 15.8729 0 12.4813 0H12.4852ZM11.3649 2.24926C11.6973 2.24874 12.0682 2.24926 12.4849 2.24926C15.8181 2.24926 16.2132 2.26123 17.5295 2.32105C18.7467 2.3767 19.4074 2.58009 19.8474 2.75097C20.43 2.97724 20.8454 3.24773 21.2821 3.68467C21.719 4.12161 21.9895 4.53775 22.2163 5.12034C22.3872 5.55988 22.5908 6.22049 22.6462 7.43769C22.706 8.75372 22.719 9.14905 22.719 12.4807C22.719 15.8124 22.706 16.2077 22.6462 17.5238C22.5906 18.741 22.3872 19.4016 22.2163 19.8411C21.99 20.4237 21.719 20.8386 21.2821 21.2752C20.8451 21.7122 20.4303 21.9827 19.8474 22.2089C19.4079 22.3806 18.7467 22.5835 17.5295 22.6391C16.2135 22.6989 15.8181 22.7119 12.4849 22.7119C9.15133 22.7119 8.75626 22.6989 7.44022 22.6391C6.22301 22.5829 5.56239 22.3796 5.12206 22.2087C4.53946 21.9824 4.12332 21.7119 3.68638 21.275C3.24943 20.838 2.97894 20.4229 2.75214 19.8401C2.58126 19.4005 2.37762 18.7399 2.32222 17.5227C2.2624 16.2067 2.25043 15.8114 2.25043 12.4776C2.25043 9.14384 2.2624 8.7506 2.32222 7.43457C2.37788 6.21737 2.58126 5.55676 2.75214 5.11669C2.97842 4.53411 3.24943 4.11797 3.68638 3.68103C4.12332 3.24409 4.53946 2.9736 5.12206 2.7468C5.56213 2.57515 6.22301 2.37228 7.44022 2.31636C8.59188 2.26435 9.03819 2.24874 11.3649 2.24614V2.24926ZM19.1475 4.32281C18.3204 4.32281 17.6494 4.99305 17.6494 5.82038C17.6494 6.64745 18.3204 7.31847 19.1475 7.31847C19.9745 7.31847 20.6456 6.64745 20.6456 5.82038C20.6456 4.99331 19.9745 4.32229 19.1475 4.32229V4.32281ZM12.4864 6.0726C8.94581 6.0726 6.07523 8.94315 6.07523 12.4837C6.07523 16.0242 8.94581 18.8935 12.4864 18.8935C16.0269 18.8935 18.8965 16.0242 18.8965 12.4837C18.8965 8.94315 16.0267 6.0726 12.4861 6.0726H12.4864ZM12.484 8.32331C14.7821 8.32331 16.6454 10.1863 16.6454 12.4847C16.6454 14.7828 14.7821 16.646 12.484 16.646C10.1856 16.646 8.32261 14.7828 8.32261 12.4847C8.32261 10.1863 10.1856 8.32331 12.484 8.32331Z" fill="#3E6D3D"/>
</svg>
