<svg width="83" height="56" viewBox="0 0 83 56" fill="none" xmlns="http://www.w3.org/2000/svg">
<rect x="82" y="55" width="81" height="54" rx="27" transform="rotate(-180 82 55)" stroke="#3E6D3D" stroke-width="2"/>
<path d="M26.2929 27.2929C25.9024 27.6834 25.9024 28.3166 26.2929 28.7071L32.6569 35.0711C33.0474 35.4616 33.6805 35.4616 34.0711 35.0711C34.4616 34.6805 34.4616 34.0474 34.0711 33.6569L28.4142 28L34.0711 22.3431C34.4616 21.9526 34.4616 21.3195 34.0711 20.9289C33.6805 20.5384 33.0474 20.5384 32.6569 20.9289L26.2929 27.2929ZM56 27L27 27L27 29L56 29L56 27Z" fill="#3E6D3D"/>
</svg>
