<svg width="99" height="52" viewBox="0 0 99 52" fill="none" xmlns="http://www.w3.org/2000/svg">
<g clip-path="url(#clip0_10601_3160)">
<path d="M12.3517 49.7956C12.3313 49.4746 12.0305 49.0643 11.5487 48.6974C11.1637 48.4069 10.5799 48.0935 10.1898 48.175L10.1439 48.1852L10.1134 48.2209C9.95274 48.4018 9.44542 48.8834 8.96868 49.1229C8.46901 49.3752 7.94638 49.5051 7.41356 49.5051C6.72523 49.5051 6.09553 49.3803 5.54232 49.1306C4.9891 48.8808 4.50472 48.5343 4.10447 48.0986C3.70422 47.6603 3.39064 47.1354 3.17395 46.5366C2.9547 45.9352 2.84253 45.2676 2.84253 44.549C2.84253 43.8839 2.95215 43.2571 3.1714 42.6812C3.3881 42.1079 3.70167 41.5983 4.10192 41.1676C4.49962 40.737 4.98401 40.3981 5.53722 40.1535C6.09299 39.9114 6.72268 39.7865 7.41101 39.7865C7.8699 39.7865 8.33134 39.8757 8.78513 40.049C9.21597 40.2146 9.68506 40.551 10.0751 40.9714L10.1083 41.0071L10.1567 41.0147C10.7634 41.109 12.1274 40.1713 12.2778 39.5699L12.2956 39.5011L12.2523 39.4476C11.7016 38.7749 10.8323 38.1277 10.0343 37.799C9.22617 37.4626 8.33644 37.2944 7.39062 37.2944C6.31988 37.2944 5.32052 37.4703 4.42059 37.8168C3.52066 38.1634 2.73545 38.6679 2.08281 39.3126C1.43272 39.9572 0.915199 40.7446 0.548088 41.6569C0.180978 42.5665 -0.00512695 43.5934 -0.00512695 44.7044C-0.00512695 45.8154 0.180978 46.7939 0.548088 47.6858C0.915199 48.5776 1.43272 49.3523 2.08281 49.9918C2.73545 50.6289 3.52066 51.1283 4.42059 51.4774C5.31797 51.824 6.31733 51.9998 7.39062 51.9998C8.46391 51.9998 9.39443 51.801 10.2995 51.4061C11.1968 51.0162 11.62 50.6289 12.3109 49.9001L12.3543 49.8542L12.3492 49.7931L12.3517 49.7956Z" fill="#69C04B"/>
<path d="M13.6953 37.8375H13.935C16.1886 37.8375 16.1886 39.1804 16.1886 39.7945V51.5083H13.6979V37.835L13.6953 37.8375Z" fill="#69C04B"/>
<path d="M25.7359 45.5328C25.7232 44.7989 25.4937 44.223 25.0501 43.8C24.6065 43.377 23.9921 43.1681 23.2018 43.1681C22.4549 43.1681 21.8634 43.3821 21.4275 43.8102C20.9915 44.2383 20.7238 44.8142 20.6295 45.5328H25.7359ZM20.6295 47.4006C20.7136 48.1472 21.0017 48.7281 21.5014 49.1435C22.0011 49.5588 22.6002 49.7652 23.3064 49.7652C23.9284 49.7652 24.5352 49.6429 25.0501 49.3524C25.9271 48.8606 26.799 48.6721 27.9029 49.5792C27.4312 50.308 26.5364 50.9985 25.8175 51.3018C25.0986 51.605 24.344 51.7579 23.5536 51.7579C22.8067 51.7579 22.1005 51.633 21.4351 51.3833C20.7697 51.1336 20.1961 50.7819 19.7117 50.3258C19.2274 49.8697 18.8424 49.3193 18.5594 48.6772C18.2739 48.0325 18.1337 47.319 18.1337 46.5291C18.1337 45.7392 18.2739 45.0257 18.5594 44.381C18.8424 43.7389 19.2274 43.1885 19.7117 42.7323C20.1961 42.2762 20.7697 41.922 21.4351 41.6749C22.1005 41.4252 22.8067 41.3003 23.5536 41.3003C24.2445 41.3003 24.8793 41.4226 25.4529 41.6621C26.0291 41.9042 26.5186 42.2533 26.9265 42.7094C27.3344 43.1655 27.653 43.7287 27.8825 44.4014C28.1119 45.0715 28.2241 45.8436 28.2241 46.7151V47.4006H20.627H20.6295Z" fill="#69C04B"/>
<path d="M36.219 47.0492H35.699C35.3522 47.0492 34.9647 47.0619 34.5364 47.09C34.1081 47.118 33.7028 47.1842 33.3229 47.2862C32.9431 47.3906 32.6193 47.5435 32.3567 47.7423C32.0941 47.9436 31.9616 48.2239 31.9616 48.5832C31.9616 48.8176 32.0126 49.0163 32.1171 49.1743C32.2216 49.3323 32.3567 49.4699 32.5224 49.5795C32.6881 49.6916 32.8768 49.7706 33.0833 49.819C33.2898 49.8674 33.4988 49.8904 33.7053 49.8904C34.5619 49.8904 35.1967 49.6865 35.6046 49.2788C36.0125 48.8711 36.2165 48.3131 36.2165 47.6098V47.0492H36.219ZM36.3643 50.1401H36.3032C35.9437 50.7083 35.4874 51.1186 34.9316 51.3759C34.3784 51.6307 33.7691 51.7607 33.1037 51.7607C32.6474 51.7607 32.2012 51.6995 31.7653 51.5747C31.3293 51.4498 30.9418 51.2638 30.6027 51.0141C30.2637 50.7644 29.9909 50.4535 29.7818 50.0815C29.5728 49.7069 29.4708 49.2712 29.4708 48.7743C29.4708 48.2341 29.5677 47.7754 29.7615 47.3932C29.9552 47.0135 30.2152 46.695 30.5416 46.4402C30.8653 46.1854 31.2426 45.9815 31.6735 45.8286C32.1018 45.6757 32.5479 45.5636 33.0119 45.4872C33.4759 45.4107 33.9424 45.3623 34.4115 45.3419C34.8832 45.3215 35.3242 45.3113 35.7397 45.3113H36.3618V45.0412C36.3618 44.4195 36.1476 43.9532 35.7194 43.6398C35.2911 43.3289 34.7429 43.1735 34.0801 43.1735C33.5549 43.1735 32.9788 43.283 32.4918 43.5047C31.8086 43.813 30.8602 43.9048 30.0266 43.0206C30.5161 42.4396 31.3166 41.9274 32.0559 41.6802C32.7952 41.4305 33.56 41.3057 34.3503 41.3057C35.0565 41.3057 35.6505 41.3847 36.1349 41.5452C36.6193 41.7057 37.0195 41.9096 37.3382 42.1567C37.6569 42.4065 37.9016 42.6919 38.075 43.018C38.2483 43.3442 38.3733 43.6729 38.4497 44.0041C38.5262 44.3354 38.5696 44.659 38.5849 44.9699C38.5976 45.2808 38.6052 45.5534 38.6052 45.7904V51.5161H36.3643V50.1452V50.1401Z" fill="#69C04B"/>
<path d="M40.8691 41.55H43.235V43.1477H43.2758C43.5103 42.6508 43.8698 42.2176 44.3567 41.8507C44.8411 41.4838 45.4988 41.3003 46.3274 41.3003C46.9927 41.3003 47.5562 41.4124 48.0176 41.6316C48.4816 41.8532 48.8589 42.1437 49.1495 42.503C49.4401 42.8623 49.6466 43.2777 49.7716 43.7491C49.8965 44.2205 49.9602 44.7097 49.9602 45.2219V51.5082H49.7384C47.9564 51.5082 47.4695 51.075 47.4695 49.2989V46.4654C47.4695 46.1876 47.4567 45.8819 47.4287 45.543C47.4006 45.204 47.3267 44.8855 47.212 44.5874C47.0947 44.2893 46.9112 44.0421 46.6613 43.8408C46.4115 43.6395 46.0724 43.5401 45.6441 43.5401C45.2158 43.5401 44.8793 43.6089 44.5963 43.7491C44.3133 43.8867 44.0763 44.0727 43.8902 44.3097C43.7041 44.5441 43.5689 44.8142 43.4848 45.12C43.4032 45.4257 43.3599 45.7417 43.3599 46.0755V51.5107H40.8691V41.5526V41.55Z" fill="#69C04B"/>
<path d="M75.2271 41.5503H77.9472L80.6037 48.522H80.6445L83.3213 41.5503H85.8758L81.9523 51.5084H79.2959L75.2271 41.5503Z" fill="#69C04B"/>
<path d="M93.5648 45.5328C93.552 44.7989 93.3226 44.223 92.879 43.8C92.4354 43.377 91.821 43.1681 91.0307 43.1681C90.2837 43.1681 89.6923 43.3821 89.2563 43.8102C88.8204 44.2383 88.5527 44.8142 88.4584 45.5328H93.5648ZM88.4584 47.4006C88.5425 48.1472 88.8306 48.7281 89.3303 49.1435C89.8274 49.5588 90.4316 49.7652 91.1352 49.7652C91.7573 49.7652 92.364 49.6429 92.879 49.3524C93.756 48.8606 94.6279 48.6721 95.7318 49.5792C95.2601 50.308 94.3653 50.9985 93.6464 51.3018C92.9274 51.605 92.1728 51.7579 91.3825 51.7579C90.6355 51.7579 89.9294 51.633 89.2665 51.3833C88.6011 51.1336 88.0275 50.7819 87.5432 50.3258C87.0588 49.8697 86.6738 49.3193 86.3908 48.6772C86.1078 48.0325 85.9651 47.319 85.9651 46.5291C85.9651 45.7392 86.1053 45.0257 86.3908 44.381C86.6738 43.7389 87.0588 43.1885 87.5432 42.7323C88.0275 42.2762 88.6011 41.922 89.2665 41.6749C89.9319 41.4252 90.6381 41.3003 91.3825 41.3003C92.0734 41.3003 92.7082 41.4226 93.2818 41.6621C93.8554 41.9042 94.3474 42.2533 94.7553 42.7094C95.1632 43.1655 95.4819 43.7287 95.7114 44.4014C95.9382 45.0715 96.053 45.8436 96.053 46.7151V47.4006H88.4558H88.4584Z" fill="#69C04B"/>
<path d="M55.2986 37.8374H55.5994C57.2642 37.8374 57.9142 38.4464 57.9142 39.6542V49.1435H63.0461C63.8747 49.1435 64.1628 50.6546 64.1628 50.8966V51.5082H55.2986V37.8374Z" fill="#69C04B"/>
<path d="M66.7912 46.529C66.7912 46.9163 66.8574 47.2909 66.9875 47.6502C67.12 48.0095 67.3138 48.328 67.5687 48.6057C67.8262 48.8835 68.1321 49.1026 68.4916 49.2682C68.8511 49.4339 69.259 49.518 69.7178 49.518C70.1767 49.518 70.5821 49.4339 70.9415 49.2682C71.301 49.1026 71.6095 48.8809 71.8644 48.6057C72.1219 48.328 72.3157 48.012 72.4457 47.6502C72.5783 47.2909 72.642 46.9163 72.642 46.529C72.642 46.1417 72.5757 45.7696 72.4457 45.4078C72.3157 45.0485 72.1219 44.73 71.8644 44.4522C71.6095 44.1745 71.301 43.9554 70.9415 43.7897C70.5821 43.6241 70.1742 43.54 69.7178 43.54C69.2615 43.54 68.8511 43.6241 68.4916 43.7897C68.1321 43.9554 67.8237 44.177 67.5687 44.4522C67.3138 44.73 67.12 45.0485 66.9875 45.4078C66.8574 45.7671 66.7912 46.1417 66.7912 46.529ZM64.3004 46.529C64.3004 45.7416 64.4406 45.0256 64.7262 44.3809C65.0091 43.7388 65.3941 43.1884 65.8785 42.7322C66.3629 42.2761 66.9365 41.9219 67.6019 41.6748C68.2673 41.425 68.9709 41.3027 69.7204 41.3027C70.4699 41.3027 71.1735 41.4276 71.8389 41.6748C72.5043 41.9245 73.0779 42.2761 73.5623 42.7322C74.0467 43.1884 74.4317 43.7388 74.7146 44.3809C74.9976 45.023 75.1404 45.7391 75.1404 46.529C75.1404 47.3189 74.9976 48.0324 74.7146 48.6771C74.4317 49.3192 74.0467 49.8696 73.5623 50.3257C73.0779 50.7818 72.5043 51.1335 71.8389 51.3832C71.1735 51.6329 70.4699 51.7578 69.7204 51.7578C68.9709 51.7578 68.2673 51.6329 67.6019 51.3832C66.9365 51.1335 66.3629 50.7818 65.8785 50.3257C65.3941 49.8696 65.0091 49.3192 64.7262 48.6771C64.4432 48.0349 64.3004 47.3189 64.3004 46.529Z" fill="#69C04B"/>
<path d="M61.0091 28.1545C57.0729 28.1545 53.8734 24.7247 53.8734 20.51C53.8734 16.2954 57.0754 12.8656 61.0091 12.8656C64.9428 12.8656 68.1448 16.2954 68.1448 20.51C68.1448 24.7247 64.9428 28.1545 61.0091 28.1545ZM95.7342 0.0917332C95.6475 0.0331259 95.492 0 95.2957 0C93.3658 0 89.065 2.58127 89.065 4.04645C89.065 6.0493 89.0625 8.08017 89.0625 8.08017V8.63057L88.5781 8.36811C86.5717 7.2775 84.2926 6.70162 81.9931 6.70162C77.7993 6.70162 74.039 8.58215 71.5024 11.5405C68.9657 8.58215 65.2054 6.70162 61.0117 6.70162C56.8179 6.70162 53.0576 8.58215 50.521 11.5405C47.9844 8.58215 44.224 6.70162 40.0303 6.70162C34.1004 6.70162 29.0297 10.4576 27.0769 15.7144H19.9896C18.7481 15.7144 16.8258 19.7048 16.8258 21.7204C16.8258 22.072 16.887 22.2555 16.938 22.3472C16.9916 22.4415 17.0502 22.4772 17.1547 22.4772H23.8417L23.5154 22.9817C21.9475 25.4152 19.3676 26.8676 16.6117 26.8676C11.9897 26.8676 8.22935 22.8365 8.22935 17.8829C8.22935 12.9293 11.9897 8.89812 16.6117 8.89812C18.8501 8.89812 21.0629 9.83074 22.6792 11.4539C22.7149 11.4896 22.822 11.4743 22.9112 11.4488C24.2038 11.0793 27.2044 7.57818 27.5638 6.01872C27.6199 5.7741 27.5919 5.64669 27.5536 5.61102C24.5556 2.92527 20.6703 1.4448 16.6143 1.4448C7.54611 1.44735 0.168213 8.81913 0.168213 17.8829C0.168213 26.9466 7.54356 34.3184 16.6117 34.3184C25.1725 34.3184 32.2215 27.7468 32.9838 19.3837C33.4937 15.7017 36.4535 12.863 40.0303 12.863C43.964 12.863 47.166 16.2928 47.166 20.5075C47.166 24.7221 43.964 28.1519 40.0303 28.1519C36.0966 28.1519 32.9226 24.7501 32.8971 20.561C32.6065 23.871 31.7627 27.3645 30.1642 30.142C32.7595 32.7946 36.0354 34.3159 40.0303 34.3159C47.4949 34.3159 53.593 28.366 53.8352 20.961C53.8403 20.826 53.8581 20.6935 53.8581 20.5584C54.0162 24.0316 53.4553 27.8716 51.8976 30.8555C54.4241 33.08 57.389 34.3159 61.0117 34.3159C67.7369 34.3159 73.3532 29.4846 74.5769 23.1117C74.5973 23.0199 74.6101 22.9257 74.6279 22.8314C74.6534 22.6759 74.6789 22.5205 74.6993 22.3625C74.786 21.7739 74.8497 21.1776 74.8599 20.5712C74.8599 20.5482 74.8573 20.5279 74.8573 20.5049C74.8573 16.2903 78.0594 12.8605 81.9931 12.8605C85.9268 12.8605 89.1288 16.2903 89.1288 20.5049C89.1288 24.7196 85.9268 28.1494 81.9931 28.1494C78.0594 28.1494 74.9287 24.7909 74.8624 20.6374C75.0052 24.0927 74.4444 27.9047 72.8918 30.8657C75.4157 33.0826 78.3755 34.3133 81.9931 34.3133C89.6106 34.3133 95.8081 28.1188 95.8081 20.5049C95.8081 20.5049 95.8285 2.28823 95.8285 0.310874C95.8285 0.173274 95.7826 0.119763 95.7368 0.0891851" fill="#69C04B"/>
<path d="M74.8574 20.5611C74.8574 20.5611 74.8574 20.5688 74.8574 20.5739C74.8574 20.5968 74.86 20.6197 74.86 20.6401C74.86 20.6147 74.86 20.5866 74.86 20.5586" fill="#69C04B"/>
<path d="M97.8962 49.5768C97.8299 49.5386 97.7229 49.5208 97.5776 49.5208H97.3532V50.061H97.5903C97.7025 50.061 97.7866 50.0508 97.8401 50.0279C97.9421 49.9871 97.9957 49.9106 97.9957 49.7934C97.9957 49.6839 97.9625 49.6125 97.8962 49.5743M97.6132 49.3424C97.7994 49.3424 97.9345 49.3602 98.0211 49.3959C98.1767 49.4596 98.2531 49.587 98.2531 49.773C98.2531 49.9081 98.2047 50.0049 98.1078 50.0686C98.0568 50.1018 97.9855 50.1272 97.8911 50.14C98.0084 50.1578 98.0925 50.2062 98.1486 50.2852C98.2021 50.3642 98.2302 50.4407 98.2302 50.5171V50.6267C98.2302 50.6623 98.2302 50.698 98.2327 50.7362C98.2327 50.7745 98.2404 50.8025 98.2455 50.8127L98.2557 50.8305H98.0084C98.0084 50.8305 98.0084 50.8203 98.0058 50.8152C98.0058 50.8101 98.0058 50.805 98.0033 50.7999L97.9982 50.7515V50.6343C97.9982 50.461 97.9523 50.3489 97.858 50.2929C97.8019 50.2597 97.705 50.2444 97.5648 50.2444H97.3583V50.8305H97.0957V49.3373H97.6183L97.6132 49.3424ZM96.8127 49.266C96.5858 49.4953 96.4711 49.7705 96.4711 50.0941C96.4711 50.4177 96.5833 50.698 96.8102 50.9274C97.0371 51.1567 97.315 51.2714 97.6387 51.2714C97.9625 51.2714 98.2404 51.1567 98.4673 50.9274C98.6942 50.698 98.8089 50.4203 98.8089 50.0941C98.8089 49.7679 98.6942 49.4953 98.4673 49.266C98.2378 49.0366 97.9625 48.922 97.6387 48.922C97.315 48.922 97.0396 49.0366 96.8127 49.266ZM98.6024 51.0573C98.3373 51.3249 98.016 51.4574 97.6387 51.4574C97.2614 51.4574 96.9402 51.3249 96.6776 51.0573C96.415 50.7923 96.2825 50.4712 96.2825 50.0916C96.2825 49.7119 96.415 49.3985 96.6802 49.1309C96.9453 48.8659 97.264 48.7334 97.6387 48.7334C98.0135 48.7334 98.3373 48.8659 98.6024 49.1309C98.8675 49.3959 99.0001 49.7144 99.0001 50.0916C99.0001 50.4687 98.8675 50.7898 98.6024 51.0573Z" fill="#69C04B"/>
</g>
<defs>
<clipPath id="clip0_10601_3160">
<rect width="99" height="52" fill="white"/>
</clipPath>
</defs>
</svg>
