<svg width="84" height="56" viewBox="0 0 84 56" fill="none" xmlns="http://www.w3.org/2000/svg">
<rect x="82.5" y="55" width="81" height="54" rx="27" transform="rotate(-180 82.5 55)" fill="white"/>
<rect x="82.5" y="55" width="81" height="54" rx="27" transform="rotate(-180 82.5 55)" stroke="#3E6D3D" stroke-width="2"/>
<path d="M26.7929 27.2929C26.4024 27.6834 26.4024 28.3166 26.7929 28.7071L33.1569 35.0711C33.5474 35.4616 34.1805 35.4616 34.5711 35.0711C34.9616 34.6805 34.9616 34.0474 34.5711 33.6569L28.9142 28L34.5711 22.3431C34.9616 21.9526 34.9616 21.3195 34.5711 20.9289C34.1805 20.5384 33.5474 20.5384 33.1569 20.9289L26.7929 27.2929ZM56.5 27L27.5 27L27.5 29L56.5 29L56.5 27Z" fill="#3E6D3D"/>
</svg>
