<svg width="26" height="19" viewBox="0 0 26 19" fill="none" xmlns="http://www.w3.org/2000/svg">
<path fill-rule="evenodd" clip-rule="evenodd" d="M22.4507 1.17808C23.525 1.4683 24.3711 2.32344 24.6583 3.40939C25.18 5.37755 25.18 9.48412 25.18 9.48412C25.18 9.48412 25.18 13.5906 24.6583 15.5589C24.3711 16.6448 23.525 17.4999 22.4507 17.7903C20.5038 18.3176 12.696 18.3176 12.696 18.3176C12.696 18.3176 4.88819 18.3176 2.9411 17.7903C1.86676 17.4999 1.02068 16.6448 0.733549 15.5589C0.211914 13.5906 0.211914 9.48412 0.211914 9.48412C0.211914 9.48412 0.211914 5.37755 0.733549 3.40939C1.02068 2.32344 1.86676 1.4683 2.9411 1.17808C4.88819 0.650635 12.696 0.650635 12.696 0.650635C12.696 0.650635 20.5038 0.650635 22.4507 1.17808ZM10.3573 6.02768V13.709L16.5993 9.86847L10.3573 6.02768Z" fill="#3E6D3D"/>
</svg>
