<?xml version="1.0" encoding="UTF-8"?>
<svg version="1.1" xmlns="http://www.w3.org/2000/svg" width="500" height="250">
<path d="M0 0 C165 0 330 0 500 0 C500 82.5 500 165 500 250 C335 250 170 250 0 250 C0 167.5 0 85 0 0 Z " fill="#FEFEFE" transform="translate(0,0)"/>
<path d="M0 0 C0 0.66 0 1.32 0 2 C0.59780273 2.11480713 1.19560547 2.22961426 1.81152344 2.34790039 C5.32121831 3.39368297 7.63896937 5.97950825 10.25 8.4375 C10.80429687 8.94087891 11.35859375 9.44425781 11.9296875 9.96289062 C13.33088206 11.26227425 14.670873 12.62698674 16 14 C16 14.66 16 15.32 16 16 C17.485 16.495 17.485 16.495 19 17 C20.04892238 18.63631892 21.04906703 20.30485863 22 22 C22.99 22.99 22.99 22.99 24 24 C24.309375 24.78375 24.61875 25.5675 24.9375 26.375 C25.83696917 28.99773083 25.83696917 28.99773083 27.5 30.75 C32.68027626 38.52041439 31.95198713 51.0022538 31 60 C30.0470069 63.59236963 28.82140638 66.76375116 27 70 C26.34 70 25.68 70 25 70 C24.7525 70.556875 24.505 71.11375 24.25 71.6875 C21.13273613 77.45443817 17.68027603 80.46301485 11.68359375 83.05859375 C2.60871844 85.37783548 -8.8901652 85.32510428 -18 83 C-18 82.34 -18 81.68 -18 81 C-18.86625 80.9175 -19.7325 80.835 -20.625 80.75 C-25.43896056 79.68023099 -28.64931706 77.39161272 -32.0625 73.875 C-33.89336484 71.85862303 -33.89336484 71.85862303 -36.4375 71.0625 C-42.70051258 68.46564113 -47.25551694 61.49262789 -51 56 C-51 55.34 -51 54.68 -51 54 C-51.66 54 -52.32 54 -53 54 C-62.35762405 42.14700954 -63.61937713 26.5589715 -62 12 C-59.32006669 3.18693869 -51.7418891 -2.80048581 -43.91796875 -7.16015625 C-29.16349007 -13.22557291 -12.79600035 -7.88440426 0 0 Z " fill="#FEFEFE" transform="translate(293,86)"/>
<path d="M0 0 C2.69254991 0.70670728 2.69254991 0.70670728 5 1 C5 1.66 5 2.32 5 3 C5.556875 3.2475 6.11375 3.495 6.6875 3.75 C9.39870944 5.21551861 11.59618256 7.07694605 14 9 C14.64195312 9.29390625 15.28390625 9.5878125 15.9453125 9.890625 C18.35642483 11.1924423 19.63493673 12.64231772 21.375 14.75 C23.78074007 17.64971452 23.78074007 17.64971452 26.43164062 20.32006836 C30.5645162 24.13806433 32.68224962 27.86400081 34.75 33.0625 C35.04003906 33.75666016 35.33007812 34.45082031 35.62890625 35.16601562 C36.18846729 36.51126169 36.73806274 37.8607075 37.27636719 39.21459961 C37.8647689 40.66634784 38.51711047 42.09205567 39.1875 43.5078125 C40.30516521 46.9360356 40.29956952 50.24641052 40.25 53.8125 C40.23658569 54.88479858 40.23658569 54.88479858 40.22290039 55.97875977 C39.98741687 66.66580699 37.0295187 73.0002567 29.41796875 80.57421875 C24.98716165 84.46724979 20.94410576 87 15 87 C15 87.66 15 88.32 15 89 C4.7856253 89.47203786 -4.46270696 89.32723918 -14 85 C-15.02946434 84.03035925 -16.03321422 83.03214595 -17 82 C-18.86739746 80.97812117 -18.86739746 80.97812117 -20.875 80.125 C-24.6715892 78.29958326 -27.15711064 76.15022874 -30 73 C-30.763125 72.23816406 -31.52625 71.47632813 -32.3125 70.69140625 C-35.0340606 67.9658899 -37.68985822 65.19579694 -40.3125 62.375 C-41.19550781 61.43398437 -42.07851562 60.49296875 -42.98828125 59.5234375 C-45 57 -45 57 -45 54 C-45.99 53.67 -46.98 53.34 -48 53 C-48.73046875 50.93359375 -48.73046875 50.93359375 -49.1875 48.4375 C-49.34605469 47.61121094 -49.50460938 46.78492188 -49.66796875 45.93359375 C-49.83232422 44.97646484 -49.83232422 44.97646484 -50 44 C-50.66 44 -51.32 44 -52 44 C-55.31306861 30.62940168 -54.6931185 20.03859859 -48.3125 7.75 C-36.30886054 -6.52459828 -16.03278736 -9.96632728 0 0 Z " fill="#FEFEFE" transform="translate(165,82)"/>
<path d="M0 0 C3.99993747 -0.05855764 7.99976308 -0.09378299 12 -0.125 C13.12535156 -0.14175781 14.25070313 -0.15851563 15.41015625 -0.17578125 C21.66975392 -0.21238708 27.01491831 0.15266841 33 2 C34.00389771 2.27215332 34.00389771 2.27215332 35.02807617 2.54980469 C41.69930597 4.40169928 46.17717602 9.26371935 51 14 C51.886875 14.79019531 52.77375 15.58039063 53.6875 16.39453125 C60.03710221 23.54855941 59.58893727 35.92084839 59.296875 45.1484375 C58.75815656 52.13760036 57.33321304 58.7973253 54 65 C53.34 65 52.68 65 52 65 C51.61328125 65.88945312 51.61328125 65.88945312 51.21875 66.796875 C49.90230105 69.17660965 48.57419218 70.50978792 46.5 72.25 C45.58734375 73.03117187 45.58734375 73.03117187 44.65625 73.828125 C43 75 43 75 41 75 C41 75.66 41 76.32 41 77 C39.50817784 77.68477083 38.00592508 78.34682767 36.5 79 C35.6646875 79.37125 34.829375 79.7425 33.96875 80.125 C30.15240198 81.24981836 26.9704829 81.13574301 23 81 C23.13923538 84.25031784 23.28754185 87.50016061 23.4375 90.75 C23.47681641 91.67039062 23.51613281 92.59078125 23.55664062 93.5390625 C23.59853516 94.42851562 23.64042969 95.31796875 23.68359375 96.234375 C23.72025146 97.05131836 23.75690918 97.86826172 23.79467773 98.70996094 C23.99362183 100.92886176 24.29253225 102.88720039 25 105 C26.81601365 106.20003343 26.81601365 106.20003343 29 107 C30.32 107.66 31.64 108.32 33 109 C22.11 109 11.22 109 0 109 C1.485 108.01 1.485 108.01 3 107 C3.680625 106.29875 4.36125 105.5975 5.0625 104.875 C7 103 7 103 9 103 C9.02314385 90.79573817 9.04092555 78.59148154 9.05181217 66.38720226 C9.05703651 60.7206107 9.06412606 55.05403411 9.07543945 49.38745117 C9.08628422 43.92154607 9.09228023 38.4556554 9.09487724 32.98974037 C9.09672861 30.90169357 9.10034374 28.81364759 9.10573006 26.72560692 C9.11296152 23.80688122 9.11399004 20.8882156 9.11352539 17.96948242 C9.11712067 17.10129883 9.12071594 16.23311523 9.12442017 15.33862305 C9.11860221 11.97373702 9.07159687 9.2147906 8 6 C6.13943559 4.58721572 6.13943559 4.58721572 3.9375 3.375 C2.61158352 2.60601505 1.29496012 1.82004308 0 1 C0 0.67 0 0.34 0 0 Z " fill="#C5C5C5" transform="translate(39,71)"/>
<path d="M0 0 C10.56 0 21.12 0 32 0 C29 3 29 3 24 4 C24 15.22 24 26.44 24 38 C34.56 38 45.12 38 56 38 C56 27.11 56 16.22 56 5 C54.68 4.34 53.36 3.68 52 3 C50.68 2.01 49.36 1.02 48 0 C58.23 0 68.46 0 79 0 C78.01 0.33 77.02 0.66 76 1 C76 1.66 76 2.32 76 3 C74.68 3 73.36 3 72 3 C71.67 36.66 71.34 70.32 71 105 C72.65 105.66 74.3 106.32 76 107 C76.66 107.33 77.32 107.66 78 108 C78 108.66 78 109.32 78 110 C68.1 110 58.2 110 48 110 C48 109.34 48 108.68 48 108 C50.97 107.505 50.97 107.505 54 107 C54 106.34 54 105.68 54 105 C54.66 105 55.32 105 56 105 C56 84.21 56 63.42 56 42 C45.44 42 34.88 42 24 42 C24.33 63.45 24.66 84.9 25 107 C28.465 107.495 28.465 107.495 32 108 C32 108.66 32 109.32 32 110 C21.11 110 10.22 110 -1 110 C-0.505 109.01 -0.505 109.01 0 108 C1.98 108 3.96 108 6 108 C6 107.34 6 106.68 6 106 C6.48686531 105.54672585 6.97373062 105.09345169 7.47534943 104.62644196 C9.36985791 102.60544899 9.38004492 101.70688536 9.39440918 98.97692871 C9.40575897 98.16096725 9.41710876 97.3450058 9.42880249 96.50431824 C9.42587189 95.61279556 9.42294128 94.72127289 9.41992188 93.80273438 C9.42839142 92.86101883 9.43686096 91.91930328 9.44558716 90.9490509 C9.46902182 87.83048061 9.46997786 84.71240174 9.46875 81.59375 C9.47584706 79.43045858 9.48354538 77.26716906 9.49182129 75.10388184 C9.50528055 70.56773649 9.50682808 66.03176522 9.50097656 61.49560547 C9.49507558 55.67428778 9.52568234 49.8538027 9.56609344 44.03264618 C9.59190391 39.56487505 9.59485397 35.09730624 9.59120178 30.62947083 C9.59289891 28.48279221 9.60259795 26.33610482 9.62034607 24.1894989 C9.6424069 21.19151552 9.6328998 18.19524164 9.61523438 15.19726562 C9.62849762 14.30574295 9.64176086 13.41422028 9.65542603 12.49568176 C9.62411728 10.21651478 9.57267011 8.20647355 9 6 C6.5985084 3.98780899 6.5985084 3.98780899 4 3 C4 2.34 4 1.68 4 1 C2.68 0.67 1.36 0.34 0 0 Z " fill="#C6C6C6" transform="translate(388,71)"/>
<path d="M0 0 C0 0.66 0 1.32 0 2 C0.86625 2.12375 1.7325 2.2475 2.625 2.375 C5.89513853 2.98058121 8.87256899 3.88306035 12 5 C12 5.66 12 6.32 12 7 C13.65 7.33 15.3 7.66 17 8 C17 8.66 17 9.32 17 10 C17.99 10 18.98 10 20 10 C20 10.66 20 11.32 20 12 C20.556875 12.20625 21.11375 12.4125 21.6875 12.625 C24.97012371 14.57683032 26.70673246 16.94230994 29 20 C29 20.66 29 21.32 29 22 C29.66 22 30.32 22 31 22 C31.79831456 23.37115097 32.5883061 24.74714884 33.375 26.125 C34.03628906 27.27355469 34.03628906 27.27355469 34.7109375 28.4453125 C41.38429664 41.67069699 41.7579661 58.36264141 37.18579102 72.3137207 C33.30634666 83.00022926 27.06870278 91.10778588 18 98 C17.34 98 16.68 98 16 98 C16 98.66 16 99.32 16 100 C6.16349501 106.14477966 -2.60738105 108.24795478 -14.125 108.3125 C-15.3776062 108.32083862 -15.3776062 108.32083862 -16.65551758 108.3293457 C-22.32376861 108.26398793 -27.52144303 107.44098751 -33 106 C-33 105.34 -33 104.68 -33 104 C-34.3303125 103.814375 -34.3303125 103.814375 -35.6875 103.625 C-41.21487095 102.58209982 -44.15608457 101.09190997 -48 97 C-48.7425 96.46375 -49.485 95.9275 -50.25 95.375 C-50.8275 94.92125 -51.405 94.4675 -52 94 C-52 93.34 -52 92.68 -52 92 C-52.99 92 -53.98 92 -55 92 C-55.33 90.68 -55.66 89.36 -56 88 C-56.66 88 -57.32 88 -58 88 C-58.4125 87.0925 -58.825 86.185 -59.25 85.25 C-60.76780928 82.0184646 -60.76780928 82.0184646 -63 80.125 C-70.66384462 71.98216509 -69.35975403 58.46344904 -69.07128906 48.05810547 C-68.60309466 34.5413973 -62.91329618 23.88636652 -53.75 14.0625 C-38.48582377 0.01945787 -20.05435876 -3.94720712 0 0 Z M-54 17.25 C-54.66 18.1575 -55.32 19.065 -56 20 C-56.41958984 20.55300781 -56.83917969 21.10601562 -57.27148438 21.67578125 C-61.05443933 27.07361653 -61.73849908 31.24309577 -61.5 37.75 C-61.4808252 38.62962402 -61.46165039 39.50924805 -61.44189453 40.41552734 C-61.0690679 51.37259976 -58.97502805 61.21807053 -52 70 C-51.34 70 -50.68 70 -50 70 C-49.79375 70.680625 -49.5875 71.36125 -49.375 72.0625 C-47.53410928 75.995312 -44.92984459 78.83083642 -42 82 C-41.154375 82.928125 -40.30875 83.85625 -39.4375 84.8125 C-37.19101499 87.08381265 -37.19101499 87.08381265 -34.625 87.9375 C-31.37520304 89.25289401 -29.3018231 91.2015491 -26.74609375 93.5625 C-23.3647076 96.34628099 -21.46116145 97 -17 97 C-17 97.66 -17 98.32 -17 99 C-6.35053657 101.71806389 8.19041028 101.97648312 17.890625 96.5703125 C21.14160432 94.15013901 23.91223981 91.49721855 26 88 C26 87.34 26 86.68 26 86 C26.66 86 27.32 86 28 86 C33.62096355 76.01275226 33.28933065 63.73696426 31.25 52.6875 C29.98564025 48.95763872 28.58764853 46.91110459 26 44 C25.32650839 42.33607955 24.6590841 40.66967972 24 39 C23.0206121 37.97980427 22.02104551 36.97850195 21 36 C19.8125 33.8125 19.8125 33.8125 19 32 C18.34 32 17.68 32 17 32 C16.78214844 31.44828125 16.56429687 30.8965625 16.33984375 30.328125 C14.54344848 27.20669182 12.22397686 25.16759651 9.5625 22.75 C8.59441406 21.85796875 7.62632812 20.9659375 6.62890625 20.046875 C4.16078062 17.69282682 4.16078062 17.69282682 1 18 C0.505 16.515 0.505 16.515 0 15 C-15.95391133 4.42851936 -40.33240732 1.87395823 -54 17.25 Z " fill="#C7C7C7" transform="translate(292,70)"/>
<path d="M0 0 C0 0.66 0 1.32 0 2 C1.1446875 2.185625 1.1446875 2.185625 2.3125 2.375 C5 3 5 3 8 5 C8 5.66 8 6.32 8 7 C8.87398437 7.15662109 8.87398437 7.15662109 9.765625 7.31640625 C12.33645423 8.10293617 13.7340058 9.17565891 15.75 10.9375 C16.36359375 11.46214844 16.9771875 11.98679687 17.609375 12.52734375 C19 14 19 14 19 16 C19.66 16 20.32 16 21 16 C25 22.625 25 22.625 25 26 C25.66 26 26.32 26 27 26 C27.12117188 26.60328125 27.24234375 27.2065625 27.3671875 27.828125 C27.53476563 28.62734375 27.70234375 29.4265625 27.875 30.25 C28.03742188 31.03890625 28.19984375 31.8278125 28.3671875 32.640625 C28.89056541 34.98052878 28.89056541 34.98052878 30.02075195 36.81689453 C31.94742899 41.11216904 31.32650398 45.99248502 31.3125 50.625 C31.32861328 51.66785156 31.34472656 52.71070313 31.36132812 53.78515625 C31.36712558 63.07268001 29.50885179 70.84112534 25 79 C24.34 79 23.68 79 23 79 C22.7215625 79.99 22.7215625 79.99 22.4375 81 C19.10360469 87.95769456 13.45005975 92.95290369 7 97 C6.34 97 5.68 97 5 97 C5 97.66 5 98.32 5 99 C3.7625 99.4021875 3.7625 99.4021875 2.5 99.8125 C-0.72431986 100.90646567 -3.89641959 102.08636342 -7.0703125 103.31640625 C-11.55339624 104.9045432 -15.69553634 105.19200757 -20.4375 105.1875 C-21.13746094 105.18814453 -21.83742187 105.18878906 -22.55859375 105.18945312 C-29.15014012 105.12377649 -35.52779108 104.24124555 -42 103 C-42 102.34 -42 101.68 -42 101 C-42.70125 100.896875 -43.4025 100.79375 -44.125 100.6875 C-48.59083852 99.61958209 -52.20039159 97.53307228 -56 95 C-56 94.34 -56 93.68 -56 93 C-56.59683594 92.91492188 -57.19367188 92.82984375 -57.80859375 92.7421875 C-60.62856932 91.78711556 -61.39268004 90.55625786 -63.0625 88.125 C-65.11304156 85.16908019 -65.11304156 85.16908019 -67.52734375 82.51953125 C-76.33632901 73.43015389 -77.28553887 59.2184642 -77.24145508 47.31835938 C-77.16885127 43.1193622 -76.81372065 39.13422586 -76 35 C-75.34 35 -74.68 35 -74 35 C-73.87625 33.7625 -73.7525 32.525 -73.625 31.25 C-73.24253695 28.1237803 -72.69450477 25.71120763 -71 23 C-70.34 23 -69.68 23 -69 23 C-68.67 21.35 -68.34 19.7 -68 18 C-67.34 18 -66.68 18 -66 18 C-65.75121094 17.41347656 -65.50242187 16.82695313 -65.24609375 16.22265625 C-63.82588804 13.68943667 -62.28816254 12.29014647 -60.0625 10.4375 C-57.19563272 8.04525012 -57.19563272 8.04525012 -54.52734375 5.44140625 C-40.7684448 -7.5433347 -16.28104141 -6.54749242 0 0 Z M-62.0546875 13.64453125 C-69.24236167 22.34767889 -70.5719094 32.12042119 -70 43 C-69.49533033 46.37909257 -68.82155437 49.6844413 -68 53 C-67.34 53 -66.68 53 -66 53 C-65.83564453 53.95712891 -65.83564453 53.95712891 -65.66796875 54.93359375 C-65.50941406 55.75988281 -65.35085937 56.58617187 -65.1875 57.4375 C-65.03667969 58.26121094 -64.88585937 59.08492187 -64.73046875 59.93359375 C-64.48941406 60.61550781 -64.24835938 61.29742187 -64 62 C-63.01 62.33 -62.02 62.66 -61 63 C-60.86078125 63.57878906 -60.7215625 64.15757812 -60.578125 64.75390625 C-59.76102263 67.92845938 -57.96947677 69.55266486 -55.75 71.9375 C-54.52410156 73.25814453 -54.52410156 73.25814453 -53.2734375 74.60546875 C-46.95071729 81.26496615 -41.09042301 87.40421535 -32.6015625 91.140625 C-31 92 -31 92 -30 94 C-20.40436941 98.31724595 -11.28905216 98.47548893 -1 98 C-1 97.34 -1 96.68 -1 96 C-0.01 95.95875 0.98 95.9175 2 95.875 C9.80795179 94.73929792 15.47376459 87.99726192 20 82 C25.35365633 74.4310376 25.00945403 63.95917133 24 55 C22.80278076 50.39989622 21.07357562 46.26844675 19 42 C18.65066406 41.20207031 18.30132812 40.40414062 17.94140625 39.58203125 C14.96393531 33.41986612 10.32545895 29.0371748 5.42578125 24.3828125 C3 22 3 22 1 19 C-0.65071396 17.97388051 -2.31970006 16.97691857 -4 16 C-5.3303125 14.9171875 -5.3303125 14.9171875 -6.6875 13.8125 C-8.77265784 11.79437278 -8.77265784 11.79437278 -11 12 C-11 11.34 -11 10.68 -11 10 C-11.86625 9.731875 -12.7325 9.46375 -13.625 9.1875 C-17 8 -17 8 -20 6.4375 C-33.68596659 -0.12035899 -51.34192925 3.41173529 -62.0546875 13.64453125 Z " fill="#C7C7C7" transform="translate(181,73)"/>
<path d="M0 0 C2.30078125 1.5234375 2.30078125 1.5234375 4 3 C2.55367188 2.93039063 2.55367188 2.93039063 1.078125 2.859375 C-0.18515625 2.82328125 -1.4484375 2.7871875 -2.75 2.75 C-4.00296875 2.70359375 -5.2559375 2.6571875 -6.546875 2.609375 C-10.05046682 2.6978219 -10.05046682 2.6978219 -12.390625 4.890625 C-15.04056746 8.36385055 -15.18630651 10.53322679 -15.25 14.875 C-15.27578125 15.92429687 -15.3015625 16.97359375 -15.328125 18.0546875 C-14.96200223 21.34107521 -14.10208917 22.53281113 -12 25 C-12 25.66 -12 26.32 -12 27 C-11.34 27 -10.68 27 -10 27 C-7 32.75 -7 32.75 -7 35 C-5.515 35.495 -5.515 35.495 -4 36 C-3 38 -2 40 -1 42 C0.44729388 43.82342675 1.97925415 45.54688366 3.52734375 47.28515625 C5.59991946 49.69857995 7.26184566 52.33845117 9 55 C10.59461215 57.06825932 12.20059587 59.12550027 13.828125 61.16796875 C15 63 15 63 15 66 C15.66 66 16.32 66 17 66 C22.03104249 76.57285072 26.33227731 87.22953661 23 99 C22.34 99 21.68 99 21 99 C20.938125 99.7425 20.87625 100.485 20.8125 101.25 C19.74147404 104.87501095 18.02669125 105.81796677 15 108 C14.071875 109.0828125 14.071875 109.0828125 13.125 110.1875 C10.23356925 112.65372035 7.71740978 112.7140454 4 113 C4 112.34 4 111.68 4 111 C4.94875 110.566875 5.8975 110.13375 6.875 109.6875 C10.20041937 108.20697799 10.20041937 108.20697799 12 105 C12.24219315 102.02550392 12.24219315 102.02550392 12.125 98.8125 C12.10695313 97.72582031 12.08890625 96.63914062 12.0703125 95.51953125 C12.04710937 94.68808594 12.02390625 93.85664063 12 93 C11.34 93 10.68 93 10 93 C9.649375 91.741875 9.29875 90.48375 8.9375 89.1875 C6.92563283 83.16134387 3.56789889 78.21236258 0 73 C-0.60585938 72.10539062 -1.21171875 71.21078125 -1.8359375 70.2890625 C-4.32872971 66.66417252 -6.83829868 63.10456424 -9.6875 59.75 C-12 57 -12 57 -13.875 54.125 C-15.63630611 51.53484396 -17.39476035 49.41836745 -19.5 47.125 C-26.30098462 39.4775409 -28.1664124 32.30841486 -28.0625 22.125 C-28.05347656 20.97257812 -28.04445313 19.82015625 -28.03515625 18.6328125 C-28.02355469 17.76398438 -28.01195312 16.89515625 -28 16 C-27.34 15.67 -26.68 15.34 -26 15 C-25.6596875 13.948125 -25.6596875 13.948125 -25.3125 12.875 C-22.86261066 7.50857574 -18.72079967 4.00650546 -13.6875 1.0625 C-9.10901551 -0.25672434 -4.72744704 -0.80770452 0 0 Z " fill="#C6C6C6" transform="translate(364,69)"/>
<path d="M0 0 C1.98 0 3.96 0 6 0 C6 0.66 6 1.32 6 2 C7.423125 2.2165625 7.423125 2.2165625 8.875 2.4375 C12 3 12 3 14 4 C14 4.99 14 5.98 14 7 C14.639375 7.226875 15.27875 7.45375 15.9375 7.6875 C18 9 18 9 18.75 11.625 C18.87375 12.800625 18.87375 12.800625 19 14 C19.66 14 20.32 14 21 14 C24.1939056 21.82803389 24.48517841 28.84993097 24.4375 37.25 C24.4674707 39.10044922 24.4674707 39.10044922 24.49804688 40.98828125 C24.49278849 50.98972589 22.72389867 60.10701853 18 69 C17.34 69 16.68 69 16 69 C16 69.66 16 70.32 16 71 C12.53846154 74 12.53846154 74 10 74 C10 74.66 10 75.32 10 76 C6.38026598 77.31626692 3.90432869 78 0 78 C0 52.26 0 26.52 0 0 Z " fill="#FDFDFD" transform="translate(62,73)"/>
<path d="M0 0 C0.66 0 1.32 0 2 0 C3.28006876 2.56013753 3.10859922 4.51202879 3.1875 7.375 C3.69867081 14.42063764 6.21100669 20.0803261 10 26 C10.66 26.33 11.32 26.66 12 27 C15 31.5 15 31.5 15 34 C15.99 34.33 16.98 34.66 18 35 C18 35.66 18 36.32 18 37 C15.72707059 35.98110061 14.16975439 35.19097369 12.5 33.3125 C12.005 32.879375 11.51 32.44625 11 32 C8.41088628 32.26205604 7.30831534 32.64484117 5.5859375 34.62890625 C5.18632812 35.26699219 4.78671875 35.90507812 4.375 36.5625 C3.1484375 38.50390625 3.1484375 38.50390625 2 40 C1.34 40 0.68 40 0 40 C0 26.8 0 13.6 0 0 Z " fill="#CDCDCD" transform="translate(334,142)"/>
<path d="M0 0 C3.80802445 1.4960096 5.69424557 3.66063151 8 7 C8.75 9.3125 8.75 9.3125 9 11 C9.66 11 10.32 11 11 11 C11.1546875 9.948125 11.1546875 9.948125 11.3125 8.875 C12.09359003 5.60862353 13.42058743 2.9528148 15 0 C15.33 0 15.66 0 16 0 C16 11.88 16 23.76 16 36 C15.34 34.68 14.68 33.36 14 32 C13.65582031 31.37351562 13.31164062 30.74703125 12.95703125 30.1015625 C11.80185151 27.5648821 11.27330024 25.0991508 10.6875 22.375 C8.79979943 14.57631785 6.11077256 7.43179783 0 2 C0 1.34 0 0.68 0 0 Z " fill="#C5C5C5" transform="translate(368,72)"/>
<path d="M0 0 C0.66 0.33 1.32 0.66 2 1 C1.67 1.33 1.34 1.66 1 2 C1.99 2.66 2.98 3.32 4 4 C3.24074219 4.25394531 2.48148438 4.50789063 1.69921875 4.76953125 C0.70535156 5.11371094 -0.28851563 5.45789063 -1.3125 5.8125 C-2.29863281 6.14894531 -3.28476563 6.48539062 -4.30078125 6.83203125 C-6.90493499 7.95886478 -8.10826567 8.96856837 -10 11 C-10.66 11 -11.32 11 -12 11 C-12.33 11.99 -12.66 12.98 -13 14 C-13.66 14 -14.32 14 -15 14 C-15.268125 14.721875 -15.53625 15.44375 -15.8125 16.1875 C-17 19 -17 19 -18.5559082 21.31713867 C-20.2207826 24.41017413 -20.3489095 26.25130756 -20.29296875 29.73828125 C-20.28330078 30.80498047 -20.27363281 31.87167969 -20.26367188 32.97070312 C-20.23853516 34.07349609 -20.21339844 35.17628906 -20.1875 36.3125 C-20.16719727 37.99569336 -20.16719727 37.99569336 -20.14648438 39.71289062 C-20.1112138 42.47575229 -20.06192235 45.23762829 -20 48 C-20.66 47.67 -21.32 47.34 -22 47 C-22.47597366 44.29400158 -22.84093629 41.66404596 -23.125 38.9375 C-23.21136719 38.17888672 -23.29773438 37.42027344 -23.38671875 36.63867188 C-23.59939517 34.76003014 -23.80075459 32.88011364 -24 31 C-24.33 31.66 -24.66 32.32 -25 33 C-25.66 33 -26.32 33 -27 33 C-25.18590051 21.12397657 -15.17862016 11.08304478 -6 4 C-4.03091838 2.60342669 -2.0397966 1.29352955 0 0 Z " fill="#D5D5D5" transform="translate(252,74)"/>
<path d="M0 0 C0.33 0 0.66 0 1 0 C1 5.61 1 11.22 1 17 C1.99 16.67 2.98 16.34 4 16 C2.125 21.75 2.125 21.75 1 24 C0.34 24 -0.32 24 -1 24 C-1.185625 24.66 -1.37125 25.32 -1.5625 26 C-4.89639531 32.95769456 -10.54994025 37.95290369 -17 42 C-17.66 42 -18.32 42 -19 42 C-19 42.66 -19 43.32 -19 44 C-20.98 43.34 -22.96 42.68 -25 42 C-22.96886416 40.9821396 -20.93744115 39.97016602 -18.88671875 38.9921875 C-11.46849873 35.22378443 -5.60340343 29.60718502 -2 22 C-1.0267726 17.22621302 -0.70508912 12.47669778 -0.4375 7.625 C-0.39431641 6.88894531 -0.35113281 6.15289062 -0.30664062 5.39453125 C-0.20156201 3.59651932 -0.10037907 1.79828042 0 0 Z " fill="#D5D5D5" transform="translate(205,128)"/>
<path d="M0 0 C2 3 2 3 1.98828125 5.265625 C0.56009864 9.21711837 -1.94594652 11.73791902 -4.8125 14.75 C-5.34681641 15.33910156 -5.88113281 15.92820313 -6.43164062 16.53515625 C-9.2175321 19.51636853 -10.87527111 21.25600529 -15 22 C-15 22.66 -15 23.32 -15 24 C-16.45264038 24.8638129 -17.9123163 25.71580454 -19.375 26.5625 C-20.18710937 27.03816406 -20.99921875 27.51382813 -21.8359375 28.00390625 C-22.55007813 28.33261719 -23.26421875 28.66132813 -24 29 C-24.66 28.67 -25.32 28.34 -26 28 C-24.68 27.67 -23.36 27.34 -22 27 C-22 26.34 -22 25.68 -22 25 C-27.61 25 -33.22 25 -39 25 C-39 24.67 -39 24.34 -39 24 C-37.31583984 23.96132812 -37.31583984 23.96132812 -35.59765625 23.921875 C-24.69299863 23.61586147 -24.69299863 23.61586147 -14.56640625 19.83984375 C-13 19 -13 19 -11 19 C-10.7525 18.443125 -10.505 17.88625 -10.25 17.3125 C-8.77075182 14.57589087 -7.06532561 12.32349131 -5 10 C-4.34 10 -3.68 10 -3 10 C-2.814375 9.195625 -2.814375 9.195625 -2.625 8.375 C-1.87793984 5.5361714 -0.94696636 2.77776798 0 0 Z " fill="#DBDBDB" transform="translate(323,146)"/>
<path d="M0 0 C-3 2 -3 2 -6.6875 3.1875 C-12.73951295 5.44587983 -17.48080577 9.00702224 -20.4375 14.83203125 C-21.2415774 16.74925331 -21.99980109 18.68670189 -22.69921875 20.64453125 C-24 23 -24 23 -26.64453125 24.32421875 C-27.42183594 24.54722656 -28.19914062 24.77023438 -29 25 C-28.34 23.02 -27.68 21.04 -27 19 C-26.34 19 -25.68 19 -25 19 C-24.67 17.35 -24.34 15.7 -24 14 C-23.34 14 -22.68 14 -22 14 C-21.75121094 13.41347656 -21.50242187 12.82695313 -21.24609375 12.22265625 C-19.82588804 9.68943667 -18.28816254 8.29014647 -16.0625 6.4375 C-13.13489239 3.98167157 -13.13489239 3.98167157 -10.37109375 1.34765625 C-7.09339137 -1.87401703 -4.25999475 -0.70999913 0 0 Z " fill="#D3D3D3" transform="translate(137,77)"/>
<path d="M0 0 C2 0.75 2 0.75 4 2 C5.32 2.66 6.64 3.32 8 4 C0.08 4 -7.84 4 -16 4 C-16 3.67 -16 3.34 -16 3 C-15.18015625 2.95101562 -14.3603125 2.90203125 -13.515625 2.8515625 C-12.43796875 2.77679688 -11.3603125 2.70203125 -10.25 2.625 C-9.18265625 2.55539063 -8.1153125 2.48578125 -7.015625 2.4140625 C-4.17130249 2.02352081 -2.49399136 1.31440085 0 0 Z " fill="#CACACA" transform="translate(64,176)"/>
<path d="M0 0 C3.80802445 1.4960096 5.69424557 3.66063151 8 7 C8.36784131 8.3242287 8.71202981 9.65613912 9 11 C9.66 11.33 10.32 11.66 11 12 C10.67 12.66 10.34 13.32 10 14 C9.34 14 8.68 14 8 14 C7.63648438 13.20335938 7.63648438 13.20335938 7.265625 12.390625 C5.28144678 8.20858783 3.43050972 5.18547331 0 2 C0 1.34 0 0.68 0 0 Z " fill="#D5D5D5" transform="translate(368,72)"/>
<path d="M0 0 C1.81495662 0.44850658 3.62693134 0.90909571 5.4375 1.375 C6.44683594 1.63023438 7.45617187 1.88546875 8.49609375 2.1484375 C11 3 11 3 12 5 C11.01 5.495 11.01 5.495 10 6 C10 6.99 10 7.98 10 9 C9.34 8.67 8.68 8.34 8 8 C8 7.01 8 6.02 8 5 C5.36 4.34 2.72 3.68 0 3 C0 2.01 0 1.02 0 0 Z " fill="#D1D1D1" transform="translate(68,72)"/>
<path d="M0 0 C0 0.99 0 1.98 0 3 C0.66 3.66 1.32 4.32 2 5 C-2.95 6.485 -2.95 6.485 -8 8 C-8.66 7.34 -9.32 6.68 -10 6 C-8.02 5.67 -6.04 5.34 -4 5 C-4 4.34 -4 3.68 -4 3 C-2 1.375 -2 1.375 0 0 Z " fill="#D5D5D5" transform="translate(76,144)"/>
<path d="M0 0 C1.98 0.99 1.98 0.99 4 2 C4 5.63 4 9.26 4 13 C3.34 11.68 2.68 10.36 2 9 C1.62875 8.360625 1.2575 7.72125 0.875 7.0625 C-0.17440531 4.58890178 -0.14780359 2.66046462 0 0 Z " fill="#CDCDCD" transform="translate(380,95)"/>
<path d="M0 0 C0.66 0 1.32 0 2 0 C5 4.38461538 5 4.38461538 5 7 C5.99 7.33 6.98 7.66 8 8 C8 8.66 8 9.32 8 10 C5.76224708 8.99686938 4.1492612 8.15523165 2.4375 6.375 C0.97021721 4.65438868 0.97021721 4.65438868 -2 5 C-2 4.34 -2 3.68 -2 3 C-1.34 2.67 -0.68 2.34 0 2 C0 1.34 0 0.68 0 0 Z " fill="#DCDCDC" transform="translate(344,169)"/>
<path d="M0 0 C0.33 0.66 0.66 1.32 1 2 C1.66 2.33 2.32 2.66 3 3 C-0.72965139 5.03435531 -2.66905042 6 -7 6 C-7 5.34 -7 4.68 -7 4 C-6.030625 3.525625 -5.06125 3.05125 -4.0625 2.5625 C-1.19522563 1.29806053 -1.19522563 1.29806053 0 0 Z " fill="#D8D8D8" transform="translate(375,176)"/>
<path d="M0 0 C0 0.66 0 1.32 0 2 C-1.32 2.33 -2.64 2.66 -4 3 C-4 3.66 -4 4.32 -4 5 C-5.98 5.33 -7.96 5.66 -10 6 C-4.30769231 0 -4.30769231 0 0 0 Z " fill="#CFCFCF" transform="translate(312,165)"/>
<path d="M0 0 C0.66 0.99 1.32 1.98 2 3 C-0.31 5.31 -2.62 7.62 -5 10 C-5.33 9.01 -5.66 8.02 -6 7 C-4.78515625 5.17578125 -4.78515625 5.17578125 -3.0625 3.3125 C-2.49660156 2.68988281 -1.93070312 2.06726563 -1.34765625 1.42578125 C-0.90292969 0.95527344 -0.45820313 0.48476562 0 0 Z " fill="#D9D9D9" transform="translate(318,156)"/>
<path d="M0 0 C-3.21627837 2.14418558 -5.19090105 2.67582137 -9 3 C-9.66 2.34 -10.32 1.68 -11 1 C-7.2297564 -1.56376565 -4.32597804 -0.83191885 0 0 Z " fill="#DADADA" transform="translate(137,77)"/>
<path d="M0 0 C0.33 0 0.66 0 1 0 C1.3636198 4.24223102 0.5393228 6.58168085 -2 10 C-2.66 10 -3.32 10 -4 10 C-2.8905928 6.51329166 -1.73662334 3.22515763 0 0 Z " fill="#CCCCCC" transform="translate(383,72)"/>
</svg>
