<?xml version="1.0" encoding="UTF-8"?>
<svg version="1.1" xmlns="http://www.w3.org/2000/svg" width="500" height="250">
<path d="M0 0 C165 0 330 0 500 0 C500 82.5 500 165 500 250 C335 250 170 250 0 250 C0 167.5 0 85 0 0 Z " fill="#FEFEFE" transform="translate(0,0)"/>
<path d="M0 0 C3.4206552 2.45585501 3.91099946 3.55499731 4.75 7.75 C4.8325 8.8225 4.915 9.895 5 11 C0.38 11 -4.24 11 -9 11 C-9.495 9.515 -9.495 9.515 -10 8 C-12.64 8 -15.28 8 -18 8 C-18.33 8.99 -18.66 9.98 -19 11 C-16.69 11.66 -14.38 12.32 -12 13 C-12 13.66 -12 14.32 -12 15 C-11.30132812 15.06058594 -10.60265625 15.12117188 -9.8828125 15.18359375 C-8.97273438 15.26738281 -8.06265625 15.35117188 -7.125 15.4375 C-6.22007812 15.51871094 -5.31515625 15.59992188 -4.3828125 15.68359375 C-2 16 -2 16 0 17 C0 17.66 0 18.32 0 19 C0.61875 19.103125 1.2375 19.20625 1.875 19.3125 C4 20 4 20 6 23 C6.23046875 25.12109375 6.23046875 25.12109375 6.1875 27.4375 C6.18105469 28.19933594 6.17460937 28.96117187 6.16796875 29.74609375 C5.9290803 32.95164335 5.7343806 35.15434961 3.58203125 37.6328125 C2.99808594 38.12523437 2.41414063 38.61765625 1.8125 39.125 C1.24144531 39.62257812 0.67039062 40.12015625 0.08203125 40.6328125 C-6.36334262 44.86523437 -13.57816653 44.59226601 -21 44 C-24.91018003 43.13407778 -27.44506431 41.52572855 -30.375 38.75 C-32.31214306 35.47175789 -32.70442649 32.7685623 -33 29 C-28.38 29 -23.76 29 -19 29 C-18.505 30.98 -18.505 30.98 -18 33 C-13.05 32.505 -13.05 32.505 -8 32 C-8 30.68 -8 29.36 -8 28 C-9.66289062 27.61908203 -9.66289062 27.61908203 -11.359375 27.23046875 C-12.8230367 26.88331822 -14.28657187 26.53563385 -15.75 26.1875 C-16.47960937 26.02185547 -17.20921875 25.85621094 -17.9609375 25.68554688 C-21.99799596 24.71298279 -24.78375696 23.74282408 -28 21 C-28.99 20.67 -29.98 20.34 -31 20 C-32.84993852 17.15587683 -33.32984478 14.59509249 -33.625 11.25 C-33.69976562 10.45078125 -33.77453125 9.6515625 -33.8515625 8.828125 C-33.90054688 8.22484375 -33.94953125 7.6215625 -34 7 C-36.78095976 14.19320875 -39.08489933 21.44955262 -41.07299805 28.89624023 C-42.43253532 33.76359994 -44.34159716 37.69699202 -47 42 C-51.62 42 -56.24 42 -61 42 C-63.41862058 36.06338584 -64.9007105 30.31121503 -66 24 C-66.66 24 -67.32 24 -68 24 C-68.24234375 23.0821875 -68.4846875 22.164375 -68.734375 21.21875 C-70.90008634 13.0798835 -70.90008634 13.0798835 -74.25 5.375 C-76 2 -76 2 -76 -2 C-71.05 -2 -66.1 -2 -61 -2 C-59.99377258 1.58169045 -58.99479988 5.16513557 -58 8.75 C-57.71382812 9.76578125 -57.42765625 10.7815625 -57.1328125 11.828125 C-56.86210937 12.8078125 -56.59140625 13.7875 -56.3125 14.796875 C-56.06113281 15.69760742 -55.80976563 16.59833984 -55.55078125 17.52636719 C-55 20 -55 20 -55 24 C-54.01 24 -53.02 24 -52 24 C-51.88785156 22.8759375 -51.77570313 21.751875 -51.66015625 20.59375 C-51.05476576 15.75062611 -49.79754944 11.17826532 -48.4375 6.5 C-48.20353516 5.67757812 -47.96957031 4.85515625 -47.72851562 4.0078125 C-47.15757928 2.00370942 -46.57953295 0.00163409 -46 -2 C-41.38 -2 -36.76 -2 -32 -2 C-31.505 -0.515 -31.505 -0.515 -31 1 C-30.42894531 0.71125 -29.85789063 0.4225 -29.26953125 0.125 C-19.65818294 -4.27574454 -9.54070055 -4.85708392 0 0 Z " fill="#C6C6C6" transform="translate(216,100)"/>
<path d="M0 0 C2.6875 2.375 2.6875 2.375 5 5 C7.68116647 7.24111686 7.68116647 7.24111686 10.0078125 6.81640625 C12.31658252 5.87026324 13.28433145 4.83821412 14.875 2.9375 C17.08801768 0.63551679 17.77073688 0.05253946 21 -0.6875 C25.17537936 0.26935777 26.97687018 1.97687018 30 5 C30 5.66 30 6.32 30 7 C30.598125 7.268125 31.19625 7.53625 31.8125 7.8125 C34.14126747 9.07668805 35.49243283 9.8140276 37 12 C37.41086482 15.76626089 37.50467817 18.10534325 35.625 21.4375 C34 23 34 23 32 23 C32 23.66 32 24.32 32 25 C30.4609375 26.48046875 30.4609375 26.48046875 28.375 28.1875 C24.91212733 31.1100663 22.02489092 34.15830902 19.2265625 37.71484375 C18.82179687 38.13894531 18.41703125 38.56304687 18 39 C17.34 39 16.68 39 16 39 C16 39.66 16 40.32 16 41 C15.01 41.66 14.02 42.32 13 43 C12.67 43.99 12.34 44.98 12 46 C6.56314566 45.54820506 6.56314566 45.54820506 4.0859375 43.13671875 C3.52132812 42.32847656 2.95671875 41.52023438 2.375 40.6875 C-0.88111777 36.32718815 -4.33321216 32.44792811 -8.1875 28.625 C-8.68652832 28.12572998 -9.18555664 27.62645996 -9.69970703 27.11206055 C-11.98626844 24.85705628 -14.27827557 22.78735908 -16.83203125 20.8359375 C-19 19 -19 19 -19.5 16 C-18.96250906 12.77505439 -18.2969155 11.2969155 -16 9 C-15.34 9 -14.68 9 -14 9 C-14 8.34 -14 7.68 -14 7 C-13.34 7 -12.68 7 -12 7 C-11.34 5.68 -10.68 4.36 -10 3 C-9.34 3 -8.68 3 -8 3 C-8 2.34 -8 1.68 -8 1 C-5.11138291 -0.44430855 -3.20352299 -0.37688506 0 0 Z " fill="#C5C5C5" transform="translate(56,97)"/>
<path d="M0 0 C0 0.66 0 1.32 0 2 C0.66 2 1.32 2 2 2 C2 2.66 2 3.32 2 4 C2.99 4.33 3.98 4.66 5 5 C6.95249675 8.69946752 7 10.63532323 7 15 C2.38 15 -2.24 15 -7 15 C-7.33 13.02 -7.66 11.04 -8 9 C-13.445 8.505 -13.445 8.505 -19 8 C-20.75062321 12.53633712 -21.27080915 16.33376649 -21.25 21.1875 C-21.25515625 22.39792969 -21.2603125 23.60835937 -21.265625 24.85546875 C-21.24116612 28.16117161 -21.24116612 28.16117161 -19 31 C-14.87000582 31.38240687 -11.41974821 31.53314682 -8 29 C-7.34 27.68 -6.68 26.36 -6 25 C-1.71 25 2.58 25 7 25 C6.56516436 30.43544554 5.46772 33.76167555 2 38 C-0.6875 39.75 -0.6875 39.75 -3 41 C-3.495 41.99 -3.495 41.99 -4 43 C-7.28654123 44.20202202 -10.53132769 44.13367168 -14 44.125 C-15.03125 44.12757813 -16.0625 44.13015625 -17.125 44.1328125 C-19.59657009 44.01863671 -21.6442958 43.71350656 -24 43 C-24 42.34 -24 41.68 -24 41 C-24.886875 40.79375 -25.77375 40.5875 -26.6875 40.375 C-31.41038469 38.4145573 -33.79727988 35.3141994 -36.1328125 30.8203125 C-37.27866241 27.09371954 -37.21455898 23.54198054 -37.125 19.6875 C-37.11597656 18.94693359 -37.10695313 18.20636719 -37.09765625 17.44335938 C-37.07424213 15.62876533 -37.03837615 13.81433929 -37 12 C-36.34 12 -35.68 12 -35 12 C-34.9071875 10.948125 -34.9071875 10.948125 -34.8125 9.875 C-33.69219429 5.91084133 -31.83933474 3.97783887 -29 1 C-28.34 1 -27.68 1 -27 1 C-27 0.34 -27 -0.32 -27 -1 C-17.90418085 -4.42800391 -8.76930562 -4.12673206 0 0 Z " fill="#C6C6C6" transform="translate(136,100)"/>
<path d="M0 0 C2.5 1.375 2.5 1.375 4 3 C4 3.66 4 4.32 4 5 C4.66 5 5.32 5 6 5 C7.06723961 8.46222615 7.10173486 11.64039266 7.0625 15.25 C7.05347656 16.32765625 7.04445313 17.4053125 7.03515625 18.515625 C7.02355469 19.33546875 7.01195312 20.1553125 7 21 C6.34 21 5.68 21 5 21 C4.67 22.32 4.34 23.64 4 25 C3.34 25 2.68 25 2 25 C2 25.66 2 26.32 2 27 C-0.48754786 28.24377393 -2.22655301 28.13306235 -5 28.125 C-5.886875 28.12757813 -6.77375 28.13015625 -7.6875 28.1328125 C-10 28 -10 28 -12 27 C-12.33 30.3 -12.66 33.6 -13 37 C-14.98 37 -16.96 37 -19 37 C-19 25.12 -19 13.24 -19 1 C-16 1 -13 1 -10 1 C-6.81723924 -0.59138038 -3.4646612 -0.39713508 0 0 Z " fill="#C6C6C6" transform="translate(252,115)"/>
<path d="M0 0 C1.0725 0.37125 2.145 0.7425 3.25 1.125 C4.1575 1.41375 5.065 1.7025 6 2 C6.99 1.34 7.98 0.68 9 0 C13.98885232 -0.46193077 16.98880248 -0.06738634 21 3 C22.24497833 5.48995665 22.12934372 7.18994911 22.1328125 9.97265625 C22.13474609 11.44508789 22.13474609 11.44508789 22.13671875 12.94726562 C22.13285156 13.97529297 22.12898438 15.00332031 22.125 16.0625 C22.13080078 17.6103418 22.13080078 17.6103418 22.13671875 19.18945312 C22.13542969 20.16978516 22.13414062 21.15011719 22.1328125 22.16015625 C22.13168457 23.06386963 22.13055664 23.96758301 22.12939453 24.89868164 C22 27 22 27 21 28 C19.02 28 17.04 28 15 28 C15 20.74 15 13.48 15 6 C12.69 6 10.38 6 8 6 C6.85354088 8.29291824 6.81796574 9.76450359 6.71875 12.31640625 C6.68136719 13.16267578 6.64398438 14.00894531 6.60546875 14.88085938 C6.53500285 16.67252002 6.46469102 18.46418672 6.39453125 20.25585938 C6.35714844 21.10083984 6.31976563 21.94582031 6.28125 22.81640625 C6.23581055 23.98345093 6.23581055 23.98345093 6.18945312 25.17407227 C6 27 6 27 5 28 C3.02 28 1.04 28 -1 28 C-1.33 20.74 -1.66 13.48 -2 6 C-3.98 6 -5.96 6 -8 6 C-8.88639389 8.65918166 -9.17989025 10.48064641 -9.31640625 13.23046875 C-9.35830078 14.03291016 -9.40019531 14.83535156 -9.44335938 15.66210938 C-9.48267578 16.49548828 -9.52199219 17.32886719 -9.5625 18.1875 C-9.60568359 19.03248047 -9.64886719 19.87746094 -9.69335938 20.74804688 C-9.79931518 22.83184433 -9.9001502 24.91590103 -10 27 C-11.98 27 -13.96 27 -16 27 C-16 18.42 -16 9.84 -16 1 C-14.35 1 -12.7 1 -11 1 C-11 1.99 -11 2.98 -11 4 C-10.34 4 -9.68 4 -9 4 C-9 3.01 -9 2.02 -9 1 C-5.96344656 -0.51827672 -3.36087176 -0.16804359 0 0 Z " fill="#CECECE" transform="translate(353,115)"/>
<path d="M0 0 C1.91635217 -0.05423638 3.83314925 -0.09289963 5.75 -0.125 C7.35101563 -0.15980469 7.35101563 -0.15980469 8.984375 -0.1953125 C11.96097068 -0.00252781 13.57897463 0.2917064 16 2 C16.94137255 4.82411765 17.11725382 6.52918032 17.09765625 9.44921875 C17.09443359 10.29677734 17.09121094 11.14433594 17.08789062 12.01757812 C17.07951172 12.89865234 17.07113281 13.77972656 17.0625 14.6875 C17.05798828 15.58017578 17.05347656 16.47285156 17.04882812 17.39257812 C17.03704983 19.59511987 17.02060164 21.79752599 17 24 C17.99 24 18.98 24 20 24 C19.67 25.32 19.34 26.64 19 28 C16.125 28.125 16.125 28.125 13 28 C12.34 27.34 11.68 26.68 11 26 C10.01 26.66 9.02 27.32 8 28 C3.45604324 28.65238778 -0.62977113 28.81561242 -4.625 26.4375 C-6.52641491 23.06680993 -6.47647608 20.81180865 -6 17 C-4.859375 14.859375 -4.859375 14.859375 -3 13 C-0.08203125 12.171875 -0.08203125 12.171875 3.1875 11.75 C4.27417969 11.60046875 5.36085938 11.4509375 6.48046875 11.296875 C7.31191406 11.19890625 8.14335937 11.1009375 9 11 C9.5534764 8.92446352 10 7.15634036 10 5 C7.36 5 4.72 5 2 5 C1.67 6.32 1.34 7.64 1 9 C-0.98 9 -2.96 9 -5 9 C-4.75 6.625 -4.75 6.625 -4 4 C-1.9375 2.6875 -1.9375 2.6875 0 2 C0 1.34 0 0.68 0 0 Z " fill="#C9C9C9" transform="translate(296,115)"/>
<path d="M0 0 C1.91635217 -0.05423638 3.83314925 -0.09289963 5.75 -0.125 C7.35101563 -0.15980469 7.35101563 -0.15980469 8.984375 -0.1953125 C11.96097068 -0.00252781 13.57897463 0.2917064 16 2 C16.92188461 4.76565382 17.11785222 6.38283702 17.09765625 9.23046875 C17.09443359 10.03291016 17.09121094 10.83535156 17.08789062 11.66210938 C17.07951172 12.49548828 17.07113281 13.32886719 17.0625 14.1875 C17.05798828 15.03248047 17.05347656 15.87746094 17.04882812 16.74804688 C17.03705403 18.83206155 17.0191189 20.91603977 17 23 C17.99 23.33 18.98 23.66 20 24 C20 25.32 20 26.64 20 28 C13.375 28.125 13.375 28.125 10 27 C9.34 27.33 8.68 27.66 8 28 C3.43173948 28.48547716 -0.60845824 28.82829866 -4.625 26.4375 C-6.49154707 23.1286211 -6.34022038 20.74242418 -6 17 C-5.505 15.515 -5.505 15.515 -5 14 C-0.4124011 12.3484644 4.17202681 11.59118039 9 11 C9.5534764 8.92446352 10 7.15634036 10 5 C7.36 5.33 4.72 5.66 2 6 C1.67 6.99 1.34 7.98 1 9 C-0.65 9 -2.3 9 -4 9 C-4 7.35 -4 5.7 -4 4 C-2.68 3.34 -1.36 2.68 0 2 C0 1.34 0 0.68 0 0 Z " fill="#C6C6C6" transform="translate(384,115)"/>
<path d="M0 0 C1.65 0 3.3 0 5 0 C5 3.96 5 7.92 5 12 C5.99 11.67 6.98 11.34 8 11 C8.33 10.34 8.66 9.68 9 9 C17.63502756 8.5609308 17.63502756 8.5609308 22 12 C23.27861615 14.55723229 23.11336609 16.36737102 23.09765625 19.2265625 C23.09443359 20.2578125 23.09121094 21.2890625 23.08789062 22.3515625 C23.07951172 23.43179688 23.07113281 24.51203125 23.0625 25.625 C23.05798828 26.71296875 23.05347656 27.8009375 23.04882812 28.921875 C23.03701776 31.61463789 23.02054778 34.30729188 23 37 C21.02 37 19.04 37 17 37 C16.67 30.07 16.34 23.14 16 16 C13.69 15.34 11.38 14.68 9 14 C9 14.66 9 15.32 9 16 C8.34 16 7.68 16 7 16 C6.67 22.6 6.34 29.2 6 36 C4.02 36 2.04 36 0 36 C0 24.12 0 12.24 0 0 Z " fill="#C8C8C8" transform="translate(263,106)"/>
<path d="M0 0 C1.98 0 3.96 0 6 0 C7.33333333 3.33333333 8.66666667 6.66666667 10 10 C10.37382812 10.85207031 10.74765625 11.70414063 11.1328125 12.58203125 C12 15 12 15 12 19 C12.66 19 13.32 19 14 19 C14.12375 18.13375 14.2475 17.2675 14.375 16.375 C14.98389694 13.08695653 15.88506715 10.1480457 17 7 C17.37125 5.88625 17.7425 4.7725 18.125 3.625 C18.41375 2.75875 18.7025 1.8925 19 1 C20.98 1 22.96 1 25 1 C24.5875 2.175625 24.175 3.35125 23.75 4.5625 C22.31978151 8.78663369 21.24489957 13.0436436 20.1875 17.375 C16.12500962 33.32848786 16.12500962 33.32848786 10.015625 37.28515625 C7.29684089 38.2493762 4.85900558 38.1299548 2 38 C2 36.35 2 34.7 2 33 C3.98 33 5.96 33 8 33 C8.2506019 31.58696762 8.47461921 30.16920526 8.6875 28.75 C8.87892578 27.56664062 8.87892578 27.56664062 9.07421875 26.359375 C8.9783184 23.3107534 7.84073869 22.39470508 6 20 C5.23588169 17.66957511 4.55402416 15.31124281 3.9375 12.9375 C2.5739646 7.70296485 2.5739646 7.70296485 0 3 C0 2.01 0 1.02 0 0 Z " fill="#C8C8C8" transform="translate(432,115)"/>
<path d="M0 0 C3.45658479 2.04573386 4.7785359 3.66780385 7 7 C7 7.99 7 8.98 7 10 C5.02 10 3.04 10 1 10 C0.67 8.68 0.34 7.36 0 6 C-1.8871875 5.938125 -1.8871875 5.938125 -3.8125 5.875 C-4.52019531 5.85179688 -5.22789062 5.82859375 -5.95703125 5.8046875 C-8.31359719 5.86745538 -8.31359719 5.86745538 -11 8 C-11.36530232 11.12557959 -11.36530232 11.12557959 -11.1875 14.625 C-11.16042969 15.81351563 -11.13335937 17.00203125 -11.10546875 18.2265625 C-11.07066406 19.14179688 -11.03585937 20.05703125 -11 21 C-9.54263913 21.19491452 -8.08405407 21.38069358 -6.625 21.5625 C-5.81289063 21.66691406 -5.00078125 21.77132812 -4.1640625 21.87890625 C-1.95100814 22.18237328 -1.95100814 22.18237328 0 21 C0.33 20.01 0.66 19.02 1 18 C2.98 18 4.96 18 7 18 C6.42562214 21.87705056 4.57271945 24.11543577 2 27 C-2.01323231 29.00661616 -6.65997344 28.75797647 -11 28 C-14.95787694 25.21878917 -17.13837958 21.73437744 -18 17 C-18.53204996 12.20282827 -18.47197695 8.8951287 -16.1875 4.5625 C-11.50055902 -0.92791657 -6.81406646 -0.82806371 0 0 Z " fill="#C6C6C6" transform="translate(424,115)"/>
<path d="M0 0 C3.80843558 0.07507669 3.80843558 0.07507669 6.125 1.8125 C7.83351733 6.08379331 7.34846906 10.18954396 6.875 14.6875 C6.125 16.3125 6.125 16.3125 4.375 17.5625 C1.76704223 18.43181926 -0.14152995 18.5928559 -2.875 18.3125 C-5.875 16.3125 -5.875 16.3125 -6.875 13.3125 C-7.12767966 8.76426612 -6.92410621 5.41071243 -4.875 1.3125 C-3.875 0.3125 -3.875 0.3125 0 0 Z " fill="#FBFBFB" transform="translate(245.875,119.6875)"/>
<path d="M0 0 C1.65 0 3.3 0 5 0 C5 1.32 5 2.64 5 4 C5.99 4 6.98 4 8 4 C8.33 2.68 8.66 1.36 9 0 C10.98 0 12.96 0 15 0 C15 1.65 15 3.3 15 5 C13.02 5 11.04 5 9 5 C6.74830377 9.56746512 6.57576021 13.82277227 6.375 18.8125 C6.33632813 19.60076172 6.29765625 20.38902344 6.2578125 21.20117188 C6.16411156 23.1337538 6.08099221 25.06684376 6 27 C4.02 27 2.04 27 0 27 C0 18.09 0 9.18 0 0 Z " fill="#C7C7C7" transform="translate(319,116)"/>
<path d="M0 0 C2.14336161 3.4766338 2.21277626 6.21229195 2.125 10.25 C2.10695313 11.32765625 2.08890625 12.4053125 2.0703125 13.515625 C2.04710937 14.33546875 2.02390625 15.1553125 2 16 C1.34 16 0.68 16 0 16 C-0.33 17.32 -0.66 18.64 -1 20 C-1.66 20 -2.32 20 -3 20 C-3 20.66 -3 21.32 -3 22 C-5.48405957 23.24202979 -7.16897663 23.09908841 -9.9375 23.0625 C-10.81277344 23.05347656 -11.68804687 23.04445312 -12.58984375 23.03515625 C-13.38519531 23.02355469 -14.18054688 23.01195312 -15 23 C-15.99 23 -16.98 23 -18 23 C-18.33 22.01 -18.66 21.02 -19 20 C-18.34 19.67 -17.68 19.34 -17 19 C-14.875 19.9375 -14.875 19.9375 -13 21 C-13 20.34 -13 19.68 -13 19 C-15.475 18.01 -15.475 18.01 -18 17 C-17.67 15.68 -17.34 14.36 -17 13 C-17 13.99 -17 14.98 -17 16 C-15.7625 16.185625 -14.525 16.37125 -13.25 16.5625 C-12.55390625 16.66691406 -11.8578125 16.77132812 -11.140625 16.87890625 C-8.66058453 17.12547949 -8.66058453 17.12547949 -5 16 C-4.67 12.7 -4.34 9.4 -4 6 C-3.34 6.66 -2.68 7.32 -2 8 C-1.34 5.36 -0.68 2.72 0 0 Z " fill="#CCCCCC" transform="translate(257,120)"/>
<path d="M0 0 C1.91635217 -0.05423638 3.83314925 -0.09289963 5.75 -0.125 C7.35101563 -0.15980469 7.35101563 -0.15980469 8.984375 -0.1953125 C11.92470106 -0.00487687 13.52361878 0.47329896 16 2 C16 2.66 16 3.32 16 4 C15.01 4.33 14.02 4.66 13 5 C13 5.66 13 6.32 13 7 C13.99 7.66 14.98 8.32 16 9 C14.02 9.66 12.04 10.32 10 11 C10 9.02 10 7.04 10 5 C7.36 5.33 4.72 5.66 2 6 C1.67 6.99 1.34 7.98 1 9 C-0.65 9 -2.3 9 -4 9 C-4 7.35 -4 5.7 -4 4 C-2.68 3.34 -1.36 2.68 0 2 C0 1.34 0 0.68 0 0 Z " fill="#CCCCCC" transform="translate(384,115)"/>
<path d="M0 0 C0.48541424 7.40256709 0.48541424 7.40256709 -1.625 10 C-4.5929092 11.24964598 -6.80799279 11.27756584 -10 11 C-10.66 10.67 -11.32 10.34 -12 10 C-12.25 7.6875 -12.25 7.6875 -12 5 C-9.10140178 1.86951392 -4.29364388 0 0 0 Z " fill="#F5F5F5" transform="translate(396,128)"/>
<path d="M0 0 C0.66 0 1.32 0 2 0 C2 7.26 2 14.52 2 22 C0.68 22 -0.64 22 -2 22 C-2.05807043 18.89591193 -2.09361914 15.7919636 -2.125 12.6875 C-2.14175781 11.80642578 -2.15851563 10.92535156 -2.17578125 10.01757812 C-2.18222656 9.17001953 -2.18867188 8.32246094 -2.1953125 7.44921875 C-2.20578613 6.66893311 -2.21625977 5.88864746 -2.22705078 5.0847168 C-2 3 -2 3 0 0 Z " fill="#C4C4C4" transform="translate(371,119)"/>
<path d="M0 0 C9.94100311 -0.62675326 9.94100311 -0.62675326 14.0625 1.8125 C18 6.25806452 18 6.25806452 18 10 C16.02 10 14.04 10 12 10 C11.67 8.68 11.34 7.36 11 6 C8.03 5.505 8.03 5.505 5 5 C5 4.01 5 3.02 5 2 C3.02 2 1.04 2 -1 2 C-0.67 1.34 -0.34 0.68 0 0 Z " fill="#CDCDCD" transform="translate(413,115)"/>
<path d="M0 0 C0.125 5.75 0.125 5.75 -1 8 C-4.3 8 -7.6 8 -11 8 C-11 6.02 -11 4.04 -11 2 C-3.375 0 -3.375 0 0 0 Z " fill="#FAFAFA" transform="translate(307,130)"/>
<path d="M0 0 C1.1875 2.25 1.1875 2.25 2 5 C0.625 7.3125 0.625 7.3125 -1 9 C-3.97 8.505 -3.97 8.505 -7 8 C-7.1875 5.125 -7.1875 5.125 -7 2 C-4 0 -4 0 0 0 Z " fill="#E4E4E4" transform="translate(467,107)"/>
<path d="M0 0 C0.66 0.33 1.32 0.66 2 1 C1.67 2.65 1.34 4.3 1 6 C-6.75 5.125 -6.75 5.125 -9 4 C-9 3.01 -9 2.02 -9 1 C-6.01405576 -0.49297212 -3.29146376 -0.11755228 0 0 Z " fill="#C7C7C7" transform="translate(369,115)"/>
<path d="M0 0 C1.32 0.66 2.64 1.32 4 2 C4.21278058 6.46839215 3.59138085 9.82262526 2 14 C1.67 14 1.34 14 1 14 C0.33333333 11.33333333 -0.33333333 8.66666667 -1 6 C-1.22816406 5.29359375 -1.45632812 4.5871875 -1.69140625 3.859375 C-1.79324219 3.24578125 -1.89507812 2.6321875 -2 2 C-1.34 1.34 -0.68 0.68 0 0 Z " fill="#C2C2C2" transform="translate(253,118)"/>
<path d="M0 0 C2.00841268 0.01421885 4.01537247 0.13420475 6.01953125 0.265625 C6.34953125 1.585625 6.67953125 2.905625 7.01953125 4.265625 C2.76386578 5.42626104 -0.66397655 5.02735892 -4.98046875 4.265625 C-3.72152968 1.74774686 -2.88459378 0.38688832 0 0 Z " fill="#C2C2C2" transform="translate(275.98046875,115.734375)"/>
<path d="M0 0 C0 0.99 0 1.98 0 3 C-2.90600261 4.25664978 -4.79604584 5 -8 5 C-8.33 6.98 -8.66 8.96 -9 11 C-9.33 11 -9.66 11 -10 11 C-10.125 4.375 -10.125 4.375 -9 1 C-2.63157895 -1.31578947 -2.63157895 -1.31578947 0 0 Z " fill="#CECECE" transform="translate(388,128)"/>
<path d="M0 0 C-0.33 1.65 -0.66 3.3 -1 5 C-3.97 5 -6.94 5 -10 5 C-7.2178219 -0.5643562 -5.86594058 -0.12752045 0 0 Z " fill="#C3C3C3" transform="translate(354,116)"/>
<path d="M0 0 C4.62 0 9.24 0 14 0 C14.33 0.99 14.66 1.98 15 3 C15.66 3.33 16.32 3.66 17 4 C16.67 4.66 16.34 5.32 16 6 C15.34 6 14.68 6 14 6 C14 6.66 14 7.32 14 8 C13.01 8.33 12.02 8.66 11 9 C11.52268466 6.23723823 12.10869587 3.6739124 13 1 C9.04 1 5.08 1 1 1 C0.67 1.66 0.34 2.32 0 3 C0 2.01 0 1.02 0 0 Z " fill="#DCDCDC" transform="translate(170,98)"/>
<path d="M0 0 C4.455 0.99 4.455 0.99 9 2 C9 2.33 9 2.66 9 3 C7.02 3.33 5.04 3.66 3 4 C3 4.99 3 5.98 3 7 C1.125 6.6875 1.125 6.6875 -1 6 C-1.66 5.01 -2.32 4.02 -3 3 C-2.34 3 -1.68 3 -1 3 C-0.67 2.01 -0.34 1.02 0 0 Z " fill="#CFCFCF" transform="translate(413,136)"/>
<path d="M0 0 C0 0.99 0 1.98 0 3 C4.455 2.505 4.455 2.505 9 2 C5.52735662 4.31509559 3.11592992 4.62582455 -1 5 C-1.66 4.67 -2.32 4.34 -3 4 C-3 3.34 -3 2.68 -3 2 C-3.66 1.67 -4.32 1.34 -5 1 C-2 0 -2 0 0 0 Z " fill="#D5D5D5" transform="translate(298,127)"/>
<path d="M0 0 C0.66 0.33 1.32 0.66 2 1 C1.360625 1.474375 0.72125 1.94875 0.0625 2.4375 C-2.84850272 6.05420035 -2.80649782 9.47204894 -3 14 C-3.33 14 -3.66 14 -4 14 C-4.10815225 12.23050905 -4.18566083 10.45912513 -4.25 8.6875 C-4.29640625 7.70136719 -4.3428125 6.71523437 -4.390625 5.69921875 C-4 3 -4 3 -1.984375 1.14453125 C-1.00210937 0.57798828 -1.00210937 0.57798828 0 0 Z " fill="#EFEFEF" transform="translate(416,120)"/>
<path d="M0 0 C2.97 0 5.94 0 9 0 C8.67 0.66 8.34 1.32 8 2 C5.35139573 2.59355614 2.70802678 2.74209269 0 3 C0 2.01 0 1.02 0 0 Z " fill="#C3C3C3" transform="translate(298,127)"/>
<path d="M0 0 C1.98 0 3.96 0 6 0 C6.33 1.32 6.66 2.64 7 4 C6.67 3.34 6.34 2.68 6 2 C4.68 2 3.36 2 2 2 C1.67 2.99 1.34 3.98 1 5 C0.67 3.35 0.34 1.7 0 0 Z " fill="#D9D9D9" transform="translate(432,115)"/>
<path d="M0 0 C0.99 0.33 1.98 0.66 3 1 C2.54625 1.7425 2.0925 2.485 1.625 3.25 C0.31359204 5.46930578 -0.88280803 7.67967822 -2 10 C-2.25 3.375 -2.25 3.375 0 0 Z " fill="#CBCBCB" transform="translate(292,129)"/>
<path d="M0 0 C2.97 0.495 2.97 0.495 6 1 C6 1.66 6 2.32 6 3 C6.66 3 7.32 3 8 3 C8 3.99 8 4.98 8 6 C7.01 6 6.02 6 5 6 C5 4.68 5 3.36 5 2 C3.35 2 1.7 2 0 2 C0 1.34 0 0.68 0 0 Z " fill="#E5E5E5" transform="translate(319,114)"/>
</svg>
